<?xml version="1.0" standalone="no"?>
<!DOCTYPE svg PUBLIC "-//W3C//DTD SVG 1.1//EN" "http://www.w3.org/Graphics/SVG/1.1/DTD/svg11.dtd" >
<svg xmlns="http://www.w3.org/2000/svg">
<metadata>
<json>
<![CDATA[
{
	"fontFamily": "ud2",
	"majorVersion": 1,
	"minorVersion": 0,
	"fontURL": "http://www.udtwo.com/",
	"copyright": "udtwo",
	"version": "Version 1.0",
	"fontId": "ud2",
	"psName": "ud2",
	"subFamily": "Regular",
	"fullName": "ud2",
	"description": "Font generated by IcoMoon."
}
]]>
</json>
</metadata>
<defs>
<font id="ud2" horiz-adv-x="1024">
<font-face units-per-em="1024" ascent="960" descent="-64" />
<missing-glyph horiz-adv-x="1024" />
<glyph unicode="&#x20;" horiz-adv-x="512" d="" />
<glyph unicode="&#xe100;" glyph-name="arrow-up" data-tags="arrow-up" d="M512 640l-384-384h768l-384 384z" />
<glyph unicode="&#xe101;" glyph-name="arrow-down" data-tags="arrow-down" d="M512 256l384 384h-768l384-384z" />
<glyph unicode="&#xe102;" glyph-name="arrow-left" data-tags="arrow-left" d="M320 448l384-384v768l-384-384z" />
<glyph unicode="&#xe103;" glyph-name="arrow-right" data-tags="arrow-right" d="M704 448l-384 384v-768l384 384z" />
<glyph unicode="&#xe104;" glyph-name="arrow-inward-up" data-tags="arrow-inward-up" d="M236.8 211.2c-25.6-25.6-64-25.6-89.6 0s-25.6 64 0 89.6l320 320c25.6 25.6 64 25.6 89.6 0l320-320c25.6-25.6 25.6-64 0-89.6-12.8-12.8-28.8-19.2-44.8-19.2s-32 6.4-44.8 19.2l-275.2 275.2-275.2-275.2z" />
<glyph unicode="&#xe105;" glyph-name="arrow-inward-down" data-tags="arrow-inward-down" d="M787.2 620.8c25.6 25.6 64 25.6 89.6 0s25.6-64 0-89.6l-320-320c-25.6-25.6-64-25.6-89.6 0l-320 320c-25.6 25.6-25.6 64 0 89.6 12.8 12.8 28.8 19.2 44.8 19.2s32-6.4 44.8-19.2l275.2-275.2 275.2 275.2z" />
<glyph unicode="&#xe106;" glyph-name="arrow-inward-left" data-tags="arrow-inward-left" d="M748.8 172.8c25.6-25.6 25.6-64 0-89.6s-64-25.6-89.6 0l-320 320c-25.6 25.6-25.6 64 0 89.6l320 320c25.6 25.6 64 25.6 89.6 0 12.8-12.8 19.2-28.8 19.2-44.8s-6.4-32-19.2-44.8l-275.2-275.2 275.2-275.2z" />
<glyph unicode="&#xe107;" glyph-name="arrow-inward-right" data-tags="arrow-inward-right" d="M275.2 723.2c-25.6 25.6-25.6 64 0 89.6s64 25.6 89.6 0l320-320c25.6-25.6 25.6-64 0-89.6l-320-320c-25.6-25.6-64-25.6-89.6 0-12.8 12.8-19.2 28.8-19.2 44.8s6.4 32 19.2 44.8l275.2 275.2-275.2 275.2z" />
<glyph unicode="&#xe108;" glyph-name="arrow-outward-up" data-tags="arrow-outward-up" d="M512 896l-384-384h768l-384 384zM384 512h256v-512h-256v512z" />
<glyph unicode="&#xe109;" glyph-name="arrow-outward-down" data-tags="arrow-outward-down" d="M512-3.2l384 384h-768l384-384zM640 380.8h-256v512h256v-512z" />
<glyph unicode="&#xe10a;" glyph-name="arrow-outward-left" data-tags="arrow-outward-left" d="M64 448l384-384v768l-384-384zM448 320v256h512v-256h-512z" />
<glyph unicode="&#xe10b;" glyph-name="arrow-outward-right" data-tags="arrow-outward-right" d="M960 448l-384 384v-768l384 384zM576 576v-256h-512v256h512z" />
<glyph unicode="&#xe200;" glyph-name="home" data-tags="home" d="M0 384l512 512 512-512h-1024zM704 832h128v-320h-128v320zM128 384v-384h320v224h128v-224h320v384h-768z" />
<glyph unicode="&#xe201;" glyph-name="factory" data-tags="factory" d="M960 512v320h-128v-320h-192v224l-320-224v224l-320-224v-448h1024v448h-64z" />
<glyph unicode="&#xe202;" glyph-name="supermarket" data-tags="supermarket" d="M960 768h-896l-64-320v-128h64v-384h896v384h64v128l-64 320zM512 64h-320v256h320v-256zM832 64h-192v256h192v-256zM896 960h-768v-128h768v128z" />
<glyph unicode="&#xe203;" glyph-name="Bank" data-tags="Bank" d="M512 832h-64v-64h64v64zM448 640h128v64h-128v-64zM960 64v640h-192v256h-512v-256h-192v-640h-64v-128h1024v128h-64zM256 256h-64v64h64v-64zM256 384h-64v64h64v-64zM384 448h64v-64h-64v64zM384 320h64v-64h-64v64zM640 0h-256v128h256v-128zM640 256h-64v64h64v-64zM640 384h-64v64h64v-64zM640 576h-256v320h192v-128h64v-192zM832 256h-64v64h64v-64zM832 384h-64v64h64v-64z" />
<glyph unicode="&#xe204;" glyph-name="hospital" data-tags="hospital" d="M896 576v128h-128v256h-512v-256h-128v-128h-128v-640h1024v640h-128zM448 576h-64v320h64v-128h128v128h64v-320h-64v128h-128v-128zM640 0h-256v128h256v-128zM256 384h-64v64h64v-64zM448 384h-64v64h64v-64zM640 384h-64v64h64v-64zM832 384h-64v64h64v-64zM256 256h-64v64h64v-64zM448 256h-64v64h64v-64zM640 256h-64v64h64v-64zM832 256h-64v64h64v-64z" />
<glyph unicode="&#xe300;" glyph-name="charts-pie" data-tags="charts-pie" d="M960 448h-448v448c246.4 0 448-201.6 448-448zM448 832c-246.4 0-448-201.6-448-448s201.6-448 448-448 448 201.6 448 448h-448v448z" />
<glyph unicode="&#xe301;" glyph-name="charts-area" data-tags="charts-area" d="M768 544l192-416h-768v320l192 320 192-320 192 96zM0-64v1024h128v-1024h-128zM128 64h896v-128h-896v128z" />
<glyph unicode="&#xe302;" glyph-name="charts-bar" data-tags="charts-bar" d="M0-64v1024h128v-1024h-128zM192 384h320v128h-320v-128zM192 576h448v128h-448v-128zM192 192h704v128h-704v-128zM128 64h896v-128h-896v128z" />
<glyph unicode="&#xe303;" glyph-name="charts-bar-y" data-tags="charts-bar-y" d="M1024-64h-1024v128h1024v-128zM320 128v192h-128v-192h128zM704 128v384h-128v-384h128zM512 128v576h-128v-576h128zM896 128v768h-128v-768h128z" />
<glyph unicode="&#xe304;" glyph-name="charts-broken" data-tags="charts-broken" d="M128 64h896v-128h-1024v1024h128v-896zM768 768l86.4-83.2-230.4-230.4-134.4 134.4-300.8-300.8 89.6-92.8 211.2 211.2 134.4-134.4 320 320 80-80v256h-256z" />
<glyph unicode="&#xe305;" glyph-name="charts-point" data-tags="charts-point" d="M0-64v1024h128v-1024h-128zM128 64h896v-128h-896v128zM256 256c-35.2 0-64-28.8-64-64s28.8-64 64-64 64 28.8 64 64-28.8 64-64 64zM384 448c-35.2 0-64-28.8-64-64s28.8-64 64-64 64 28.8 64 64-28.8 64-64 64zM512 320c-35.2 0-64-28.8-64-64s28.8-64 64-64 64 28.8 64 64-28.8 64-64 64zM640 512c-35.2 0-64-28.8-64-64s28.8-64 64-64 64 28.8 64 64-28.8 64-64 64zM512 704c-35.2 0-64-28.8-64-64s28.8-64 64-64 64 28.8 64 64-28.8 64-64 64zM896 832c-35.2 0-64-28.8-64-64s28.8-64 64-64 64 28.8 64 64-28.8 64-64 64zM768 320c-35.2 0-64-28.8-64-64s28.8-64 64-64 64 28.8 64 64-28.8 64-64 64zM832 608c-35.2 0-64-28.8-64-64s28.8-64 64-64 64 28.8 64 64-28.8 64-64 64z" />
<glyph unicode="&#xe306;" glyph-name="charts-radar" data-tags="charts-radar" d="M128 64v896h-128v-1024h1024v128h-896zM368 249.6l-70.4-86.4 44.8-38.4 73.6 89.6 252.8 99.2 156.8-188.8 44.8 38.4-153.6 188.8 140.8 208 118.4 54.4-19.2 57.6-115.2-51.2-233.6 150.4v124.8h-64v-124.8l-220.8-150.4-108.8 51.2-22.4-54.4 115.2-54.4 60.8-313.6zM678.4 403.2l-38.4 44.8c3.2 3.2 3.2 9.6 3.2 12.8l112 51.2-76.8-108.8zM608 700.8l169.6-108.8-163.2-73.6c0 0-6.4 3.2-6.4 3.2v179.2zM579.2 412.8c6.4 0 9.6 0 16 0l38.4-48-137.6-54.4 83.2 102.4zM544 700.8v-179.2c0 0 3.2-3.2 3.2-3.2l-163.2 73.6 160 108.8zM528 464c0-3.2 3.2-9.6 3.2-12.8l-115.2-140.8-44.8 224 156.8-70.4z" />
<glyph unicode="&#xe400;" glyph-name="pallet" data-tags="pallet" d="M512 896c121.6 0 227.2-38.4 316.8-115.2s131.2-172.8 131.2-284.8c0-67.2-25.6-128-73.6-176s-108.8-73.6-176-73.6h-86.4c-22.4 0-38.4-6.4-54.4-22.4s-22.4-32-22.4-51.2c0-16 6.4-32 19.2-48s19.2-32 19.2-51.2c0-22.4-6.4-38.4-22.4-54.4s-28.8-19.2-51.2-19.2c-124.8 0-230.4 44.8-316.8 131.2s-131.2 192-131.2 316.8 44.8 230.4 131.2 316.8 192 131.2 316.8 131.2zM512 768c-35.2 0-64-28.8-64-64s28.8-64 64-64 64 28.8 64 64-28.8 64-64 64zM704 576c-35.2 0-64-28.8-64-64s28.8-64 64-64c35.2 0 64 28.8 64 64s-28.8 64-64 64zM320 576c-35.2 0-64-28.8-64-64s28.8-64 64-64 64 28.8 64 64-28.8 64-64 64z" />
<glyph unicode="&#xe401;" glyph-name="straw" data-tags="straw" d="M259.2 99.2l400 400-96 96-400-400 96-96zM944 764.8c19.2-19.2 19.2-51.2 0-70.4l-156.8-156.8 96-96-70.4-70.4-70.4 70.4-444.8-441.6h-201.6c-19.2 0-32 12.8-32 32v204.8l441.6 444.8-70.4 70.4 70.4 70.4 96-96 156.8 156.8c6.4 9.6 19.2 12.8 32 12.8s25.6-3.2 35.2-12.8l118.4-118.4z" />
<glyph unicode="&#xe402;" glyph-name="equalizer-x" data-tags="equalizer-x" d="M448 832v16c0 25.6-22.4 48-48 48h-160c-25.6 0-48-22.4-48-48v-16h-192v-128h192v-16c0-25.6 22.4-48 48-48h160c25.6 0 48 22.4 48 48v16h576v128h-576zM256 704v128h128v-128h-128zM832 528c0 25.6-22.4 48-48 48h-160c-25.6 0-48-22.4-48-48v-16h-576v-128h576v-16c0-25.6 22.4-48 48-48h160c25.6 0 48 22.4 48 48v16h192v128h-192v16zM640 384v128h128v-128h-128zM448 208c0 25.6-22.4 48-48 48h-160c-25.6 0-48-22.4-48-48v-16h-192v-128h192v-16c0-25.6 22.4-48 48-48h160c25.6 0 48 22.4 48 48v16h576v128h-576v16zM256 64v128h128v-128h-128z" />
<glyph unicode="&#xe403;" glyph-name="equalizer-y" data-tags="equalizer-y" d="M896 512h16c25.6 0 48 22.4 48 48v160c0 25.6-22.4 48-48 48h-16v192h-128v-192h-16c-25.6 0-48-22.4-48-48v-160c0-25.6 22.4-48 48-48h16v-576h128v576zM768 704h128v-128h-128v128zM592 128c25.6 0 48 22.4 48 48v160c0 25.6-22.4 48-48 48h-16v576h-128v-576h-16c-25.6 0-48-22.4-48-48v-160c0-25.6 22.4-48 48-48h16v-192h128v192h16zM448 320h128v-128h-128v128zM272 512c25.6 0 48 22.4 48 48v160c0 25.6-22.4 48-48 48h-16v192h-128v-192h-16c-25.6 0-48-22.4-48-48v-160c0-25.6 22.4-48 48-48h16v-576h128v576h16zM128 704h128v-128h-128v128z" />
<glyph unicode="&#xe404;" glyph-name="range-x" data-tags="range-x" d="M1024 384h-256v-64h-256v64h-512v128h512v64h256v-64h256v-128zM704 512h-128v-128h128v128zM1024 384h-256v-16c0-25.6-22.4-48-48-48h-160c-25.6 0-48 22.4-48 48v16h-512v128h512v16c0 25.6 22.4 48 48 48h160c25.6 0 48-22.4 48-48v-16h256v-128zM704 512h-128v-128h128v128z" />
<glyph unicode="&#xe405;" glyph-name="range-y" data-tags="range-y" d="M448-64v256h-16c-25.6 0-48 22.4-48 48v160c0 25.6 22.4 48 48 48h16v512h128v-512h16c25.6 0 48-22.4 48-48v-160c0-25.6-22.4-48-48-48h-16v-256h-128zM576 256v128h-128v-128h128z" />
<glyph unicode="&#xe500;" glyph-name="database" data-tags="database" d="M512 960c-284.8 0-512-73.6-512-160v-128c0-86.4 230.4-160 512-160s512 73.6 512 160v128c0 86.4-230.4 160-512 160zM512 416c-281.6 0-512 70.4-512 160v-192c0-89.6 230.4-160 512-160s512 70.4 512 160v192c0-89.6-230.4-160-512-160zM512 128c-281.6 0-512 70.4-512 160v-192c0-89.6 230.4-160 512-160s512 70.4 512 160v192c0-89.6-230.4-160-512-160z" />
<glyph unicode="&#xe501;" glyph-name="disk-up" data-tags="disk-up" d="M832 832h-640l-192-512h1024l-192 512zM512 768l192-192h-128v-192h-128v192h-128l192 192zM0 64h1024v192h-1024v-192zM832 188.8h64v-64h-64v64z" />
<glyph unicode="&#xe502;" glyph-name="disk-down" data-tags="disk-down" d="M832 832h-640l-192-512h1024l-192 512zM512 384l-192 192h128v192h128v-192h128l-192-192zM0 64h1024v192h-1024v-192zM832 188.8h64v-64h-64v64z" />
<glyph unicode="&#xe503;" glyph-name="data-info" data-tags="data-info" d="M832 192h-640v64h640v-64zM832 320h-640v64h640v-64zM768 128h-576v-64h576v64zM544 672v0zM384 496v0 0 0zM640 496v0 0 0zM64 960v-1024h896v1024h-896zM896 0h-768v896h768v-896zM832 448h-640v64h640v-64zM832 576h-640v64h640v-64zM832 704h-640v64h640v-64z" />
<glyph unicode="&#xe504;" glyph-name="data-user" data-tags="data-user" d="M832 192h-640v64h640v-64zM832 128h-640v-64h640v64zM512 768c-54.4 0-96-41.6-96-96s41.6-96 96-96 96 41.6 96 96-41.6 96-96 96zM64 960v-1024h896v1024h-896zM896 0h-768v896h768v-896zM704 384v32c0 28.8-19.2 54.4-64 70.4-41.6 19.2-86.4 25.6-128 25.6s-80-9.6-128-25.6-64-44.8-64-70.4v-32h384z" />
<glyph unicode="&#xe505;" glyph-name="data-img" data-tags="data-img" d="M64 960v-1024h896v1024h-896zM896 0h-768v896h768v-896zM832 192h-640v64h640v-64zM832 64h-640v64h640v-64zM704 768c35.2 0 64-28.8 64-64s-28.8-64-64-64-64 28.8-64 64 28.8 64 64 64zM832 320h-640v128l224 256 288-320 128 128v-192z" />
<glyph unicode="&#xe506;" glyph-name="data-binary" data-tags="data-binary" d="M512 496v0 0 0zM832 64h-640v64h640v-64zM832 192h-640v64h640v-64zM448 768h64v-192h-64v192zM64 960v-1024h896v1024h-896zM896 0h-768v896h768v-896zM256 768h-64v-192h64v192zM384 768h-64v-192h64v192zM576 768h64v-192h-64v192zM704 768h64v-192h-64v192zM448 512h64v-192h-64v192zM256 512h-64v-192h64v192zM384 512h-64v-192h64v192zM576 512h64v-192h-64v192zM704 512h64v-192h-64v192zM576 768h-64v-64h64v64zM576 640h-64v-64h64v64zM448 512h-64v-64h64v64zM448 384h-64v-64h64v64z" />
<glyph unicode="&#xe507;" glyph-name="safety" data-tags="safety" d="M512 960l384-192v-275.2c0-128-6.4-246.4-86.4-355.2s-179.2-176-297.6-204.8c-118.4 28.8-217.6 96-297.6 204.8s-86.4 227.2-86.4 355.2v275.2l384 192zM512 448v-448c96 28.8 192 102.4 252.8 188.8s60.8 156.8 67.2 259.2h-320zM512 448v448l-320-160v-288h320z" />
<glyph unicode="&#xe508;" glyph-name="safety-ok" data-tags="safety-ok" d="M512 960l-384-192v-275.2c0-128 6.4-246.4 86.4-355.2s179.2-172.8 297.6-201.6c118.4 28.8 217.6 92.8 297.6 201.6s86.4 227.2 86.4 355.2v275.2l-384 192zM416 224l-224 192 96 96 128-128 320 320 96-96-416-384z" />
<glyph unicode="&#xe600;" glyph-name="phone-apple" data-tags="phone-apple" d="M256 960v-1024h576v1024h-576zM768 128h-448v704h448v-704zM608 32c0-35.2-28.8-64-64-64s-64 28.8-64 64 28.8 64 64 64 64-28.8 64-64zM608 896h-128v32h128v-32z" />
<glyph unicode="&#xe601;" glyph-name="phone-android" data-tags="phone-android" d="M256 960v-1024h576v1024h-576zM768 128h-448v704h448v-704zM608 896h-128v32h128v-32zM576 0h-64c-19.2 0-32 12.8-32 32v0c0 19.2 12.8 32 32 32h64c19.2 0 32-12.8 32-32v0c0-19.2-12.8-32-32-32z" />
<glyph unicode="&#xe602;" glyph-name="phone-win" data-tags="phone-win" d="M256 960v-1024h576v1024h-576zM768 192h-448v640h448v-640zM608 896h-128v32h128v-32zM512 64h-32v64h32v-64zM608 64h-96v64h96v-64zM512 0h-32v64h32v-64zM608 0h-96v64h96v-64z" />
<glyph unicode="&#xe603;" glyph-name="pad-apple" data-tags="pad-apple" d="M128 960v-1024h768v1024h-768zM832 192h-640v640h640v-640zM576 64c0-35.2-28.8-64-64-64s-64 28.8-64 64 28.8 64 64 64 64-28.8 64-64zM576 896h-128v32h128v-32z" />
<glyph unicode="&#xe604;" glyph-name="pad-android" data-tags="pad-android" d="M128 960v-1024h768v1024h-768zM832 128h-640v704h640v-704zM576 896h-128v32h128v-32zM544 0h-64c-19.2 0-32 12.8-32 32v0c0 19.2 12.8 32 32 32h64c19.2 0 32-12.8 32-32v0c0-19.2-12.8-32-32-32z" />
<glyph unicode="&#xe605;" glyph-name="pad-win" data-tags="pad-win" d="M128 960v-1024h768v1024h-768zM832 192h-640v640h640v-640zM576 896h-128v32h128v-32zM512 64h-64v64h64v-64zM576 64h-64v64h64v-64zM512 0h-64v64h64v-64zM576 0h-64v64h64v-64z" />
<glyph unicode="&#xe606;" glyph-name="phone" data-tags="phone" d="M224 960v-1024h576v1024h-576zM736 128h-448v704h448v-704z" />
<glyph unicode="&#xe607;" glyph-name="phone-plane" data-tags="phone-plane" d="M0 128h1024v576h-1024v-576zM832 640v-448h-704v448h704z" />
<glyph unicode="&#xe608;" glyph-name="phone-lock" data-tags="phone-lock" d="M832 960h-64v-1024h64v1024zM832 960h-576v-128h576v128zM832 128h-576v-192h576v192zM320 768v192h-64v-192h64zM256 192v-256h64v256h-64zM464 512h-16v96c0 51.2-44.8 96-96 96h-64c-54.4 0-96-44.8-96-96v-96h-16c-25.6 0-48-22.4-48-48v-160c0-25.6 22.4-48 48-48h288c25.6 0 48 22.4 48 48v160c0 25.6-22.4 48-48 48zM256 608c0 19.2 12.8 32 32 32h64c19.2 0 32-12.8 32-32v-96h-128v96z" />
<glyph unicode="&#xe609;" glyph-name="phone-plane-lock" data-tags="phone-plane-lock" d="M768 640v-64h64v-448h-704v448h128v64h-256v-576h1024v576h-256zM649.6 704h-9.6v96c0 60.8-28.8 96-89.6 96h-73.6c-64 0-92.8-35.2-92.8-96v-96h-9.6c-32 0-54.4-22.4-54.4-51.2v-214.4c0-28.8 25.6-54.4 57.6-54.4h272c32 0 57.6 25.6 57.6 54.4v214.4c-3.2 32-25.6 51.2-57.6 51.2zM448 800c0 19.2 12.8 32 32 32h64c16 0 32-12.8 32-32v-96h-128v96z" />
<glyph unicode="&#xe60a;" glyph-name="phone-warning" data-tags="phone-warning" d="M256 960v-1024h576v1024h-576zM768 128h-448v704h448v-704zM512 576h64v-256h-64v256zM512 704h60.8v-64h-60.8v64z" />
<glyph unicode="&#xe60b;" glyph-name="phone-pass" data-tags="phone-pass" d="M832 960h-64v-1024h64v1024zM832 960h-576v-128h576v128zM832 128h-576v-192h576v192zM320 768v192h-64v-192h64zM256 768v-832h64v832h-64zM656 576h-16v48c0 48-28.8 80-80 80h-32c-51.2 0-80-32-80-83.2v-44.8h-16c-25.6 0-48-19.2-48-41.6v-169.6c0-25.6 22.4-44.8 48-44.8h224c25.6 0 48 19.2 48 44.8v169.6c0 25.6-22.4 41.6-48 41.6zM512 614.4c0 16 12.8 25.6 25.6 25.6h9.6c16 0 25.6-12.8 25.6-25.6v-38.4h-60.8v38.4z" />
<glyph unicode="&#xe60c;" glyph-name="phone-down" data-tags="phone-down" d="M256 960v-1024h576v1024h-576zM768 128h-448v704h448v-704zM448 704h188.8v-256h-188.8v256zM704 448l-160-192-160 192h320z" />
<glyph unicode="&#xe60d;" glyph-name="phone-out" data-tags="phone-out" d="M832 960h-64v-1024h64v1024zM832 960h-576v-128h576v128zM832 128h-576v-192h576v192zM320 768v192h-64v-192h64zM256 192v-256h64v256h-64zM512 576v-192h-256v192h256zM256 320l-192 160 192 160v-320z" />
<glyph unicode="&#xe60e;" glyph-name="phone-option" data-tags="phone-option" d="M256 960v-192h64v64h448v-704h-448v64h-64v-256h576v1024h-576zM438.4 428.8c-3.2-6.4-6.4-16-9.6-22.4l38.4-64-44.8-44.8-64 38.4c-6.4-3.2-12.8-6.4-22.4-9.6l-16-70.4h-64l-19.2 73.6c-6.4 3.2-16 6.4-22.4 9.6l-64-38.4-44.8 44.8 38.4 64c-3.2 6.4-6.4 12.8-9.6 22.4l-70.4 16v64l73.6 19.2c3.2 6.4 6.4 16 9.6 22.4l-38.4 64 44.8 44.8 64-38.4c6.4 3.2 12.8 6.4 22.4 9.6l16 70.4h64l19.2-73.6c6.4-3.2 16-6.4 22.4-9.6l64 38.4 44.8-44.8-38.4-64c3.2-6.4 6.4-12.8 9.6-22.4l70.4-16v-64l-73.6-19.2zM288 544c-35.2 0-64-28.8-64-64s28.8-64 64-64 64 28.8 64 64-28.8 64-64 64z" />
<glyph unicode="&#xe60f;" glyph-name="phone-noise" data-tags="phone-noise" d="M256 960v-192h64v64h448v-704h-448v64h-64v-256h576v1024h-576zM297.6 368c-32 35.2-48 73.6-48 115.2s16 80 48 112l51.2-54.4c-28.8-41.6-28.8-80 0-121.6l-51.2-51.2zM153.6 256c-67.2 60.8-99.2 137.6-99.2 224s32 163.2 99.2 224l54.4-54.4c-48-51.2-70.4-108.8-70.4-172.8s22.4-121.6 70.4-166.4l-54.4-54.4z" />
<glyph unicode="&#xe610;" glyph-name="phone-develop" data-tags="phone-develop" d="M320 832h448v-64h64v192h-576v-192h64v64zM768 128h-448v64h-64v-256h576v256h-64v-64zM332.8 297.6l-176 182.4 176 182.4-44.8 44.8-224-227.2 224-224 44.8 41.6zM800 252.8l224 227.2-224 227.2-44.8-44.8 179.2-182.4-179.2-182.4 44.8-44.8z" />
<glyph unicode="&#xe611;" glyph-name="phone-pc-change" data-tags="phone-pc-change" d="M704 832v-512h320v512h-320zM960 448h-192v320h192v-320zM640 448h-512v448h832v64h-896v-576h-64v-64h640v128zM640 128l128 96-128 96v-64h-576v-64h576v-64zM384 64v64l-128-96 128-96v64h576v64h-576zM64 0h-64v256h64v-256zM1024 0h-64v256h64v-256zM64 0v64h128v-64h-128zM832 192v64h128v-64h-128z" />
<glyph unicode="&#xe612;" glyph-name="lap" data-tags="lap" d="M896 256v448h-768v-448h768zM960 192h64v-64h-1024v64h64v576h896v-576z" />
<glyph unicode="&#xe613;" glyph-name="display" data-tags="display" d="M64 832v-640h896v640h-896zM128 768h768v-448h-768v448zM416 192h192l96-128h-384l96 128z" />
<glyph unicode="&#xe614;" glyph-name="pc" data-tags="pc" d="M320 768v-448h640v448h-640zM384 704h512v-320h-512v320zM576 320h128v-64h-128v64zM448 256h384v-64h-384v64zM64 768v-576h192v576h-192zM128 704h64v-64h-64v64z" />
<glyph unicode="&#xe615;" glyph-name="phone-pc" data-tags="phone-pc" d="M704 640v-512h320v512h-320zM960 256h-192v320h192v-320zM672 704h288v64h-896v-576h-64v-64h640v128h-512v448h544z" />
<glyph unicode="&#xe616;" glyph-name="phone-pc-remove" data-tags="phone-pc-remove" d="M960 704v64h-576l64-64h512zM704 640v-192l64-64v192h192v-320h-64l128-128v512h-320zM96 800l32-32h-64v-576h-64v-64h640v128h-512v448h64l512-512v-64h64l96-96 64 64-768 768-64-64z" />
<glyph unicode="&#xe617;" glyph-name="watch" data-tags="watch" d="M739.2 220.8c-3.2 0-3.2 0 0 0l-35.2-284.8h-384l-32 284.8c0 0-3.2 3.2-3.2 3.2-60.8 60.8-92.8 134.4-92.8 224s32 163.2 92.8 227.2c3.2 0 3.2 0 3.2 0l32 284.8h384l32-284.8c0 0 3.2-3.2 3.2-3.2 64-64 92.8-137.6 92.8-227.2 0-86.4-32-160-92.8-224zM512 704c-140.8 0-256-115.2-256-256s115.2-256 256-256 256 115.2 256 256-115.2 256-256 256z" />
<glyph unicode="&#xe618;" glyph-name="bracelet" data-tags="bracelet" d="M704 960h-384c0 0-64-352-64-512s64-512 64-512h384c0 0 64 316.8 64 512s-64 512-64 512zM691.2 320h-358.4c-9.6 70.4-12.8 76.8-12.8 128s3.2 57.6 12.8 128h358.4c6.4-67.2 12.8-70.4 12.8-128s-6.4-60.8-12.8-128z" />
<glyph unicode="&#xe619;" glyph-name="camera" data-tags="camera" d="M512 512c-70.4 0-128-57.6-128-128s57.6-128 128-128 128 57.6 128 128-57.6 128-128 128zM768 704v128h-512v-128h-256v-640h1024v640h-256zM512 128c-140.8 0-256 115.2-256 256s115.2 256 256 256 256-115.2 256-256-115.2-256-256-256zM960 576h-128v64h128v-64z" />
<glyph unicode="&#xe61a;" glyph-name="printer" data-tags="printer" d="M256 896h512v-128h-512v128zM128 512c-35.2 0-64 28.8-64 64s28.8 64 64 64 64-28.8 64-64-28.8-64-64-64zM704 64h-384v320h384v-320zM0 640v-320c0-35.2 28.8-64 64-64h192v-256h512v256h192c35.2 0 64 28.8 64 64v320c0 35.2-28.8 64-64 64h-896c-35.2 0-64-28.8-64-64zM384 320h256v-64h-256v64zM384 192h256v-64h-256v64z" />
<glyph unicode="&#xe61b;" glyph-name="record" data-tags="record" d="M512 960c-281.6 0-512-230.4-512-512s230.4-512 512-512 512 230.4 512 512-230.4 512-512 512zM512 256c-105.6 0-192 86.4-192 192s86.4 192 192 192 192-86.4 192-192-86.4-192-192-192zM512 512c-35.2 0-64-28.8-64-64s28.8-64 64-64 64 28.8 64 64c0 35.2-28.8 64-64 64z" />
<glyph unicode="&#xe61c;" glyph-name="stereo" data-tags="stereo" d="M512 704c35.2 0 64 28.8 64 64s-28.8 64-64 64-64-28.8-64-64 28.8-64 64-64zM128 960v-1024h768v1024h-768zM512 896c70.4 0 128-57.6 128-128s-57.6-128-128-128-128 57.6-128 128 57.6 128 128 128zM512 64c-140.8 0-256 115.2-256 256s115.2 256 256 256 256-115.2 256-256-115.2-256-256-256zM512 448c-70.4 0-128-57.6-128-128s57.6-128 128-128 128 57.6 128 128-57.6 128-128 128z" />
<glyph unicode="&#xe61d;" glyph-name="wire" data-tags="wire" d="M835.2 512h-646.4c-67.2 0-124.8 57.6-124.8 124.8v6.4c0 67.2 57.6 124.8 124.8 124.8h451.2v-64h128v32h64v128h-64v32h-128v-64h-451.2c-102.4 0-188.8-86.4-188.8-188.8v-3.2c0-105.6 86.4-192 188.8-192h646.4c70.4 0 124.8-57.6 124.8-124.8v-3.2c0-70.4-57.6-124.8-124.8-124.8h-451.2v64h-128v-32h-64v-128h64v-32h128v64h451.2c105.6 0 188.8 86.4 188.8 188.8v0c0 99.2-86.4 192-188.8 192z" />
<glyph unicode="&#xe61e;" glyph-name="usb" data-tags="usb" d="M896 768h-192v-192h64v-252.8c0 0 0-3.2-3.2-3.2h-188.8v448h64l-128 192-128-192h64v-448h-188.8c-3.2 0-3.2 0-3.2 3.2v259.2c38.4 12.8 64 48 64 89.6 0 54.4-41.6 96-96 96s-96-41.6-96-96c0-41.6 25.6-76.8 64-89.6v-259.2c0-38.4 28.8-67.2 67.2-67.2h188.8v-153.6c-19.2-16-32-41.6-32-70.4 0-54.4 41.6-96 96-96s96 41.6 96 96c0 28.8-12.8 54.4-32 70.4v153.6h188.8c35.2 0 67.2 28.8 67.2 67.2v252.8h64v192z" />
<glyph unicode="&#xe61f;" glyph-name="router" data-tags="router" d="M640 704l54.4-32c32 22.4 57.6 32 105.6 32 51.2-3.2 67.2-3.2 105.6-32l54.4 32c-44.8 41.6-99.2 64-160 64s-115.2-22.4-160-64zM800 896c67.2 0 112-16 169.6-64l54.4 32c-64 60.8-137.6 96-224 96s-160-35.2-224-96l57.6-32c64 48 96 60.8 166.4 64zM832 576h-64v-192h-768v-384h1024v384h-192v192zM192 192h-64v64h64v-64zM320 192h-64v64h64v-64zM448 192h-64v64h64v-64z" />
<glyph unicode="&#xe620;" glyph-name="scanner" data-tags="scanner" d="M0 0h1024v384h-1024v-384zM448 256h448v-128h-448v128zM128 256h128v-128h-128v128zM128 896l-48-118.4 944-393.6 48 118.4-944 393.6z" />
<glyph unicode="&#xe621;" glyph-name="disk" data-tags="disk" d="M960 832h-896l-64-512h1024l-64 512zM0 64h1024v192h-1024v-192zM832 188.8h64v-64h-64v64z" />
<glyph unicode="&#xe622;" glyph-name="server" data-tags="server" d="M0 64h1024v192h-1024v-192zM832 188.8h64v-64h-64v64zM0 320h1024v192h-1024v-192zM832 444.8h64v-64h-64v64zM0 768v-192h1024v192h-1024zM896 636.8h-64v64h64v-64z" />
<glyph unicode="&#xe623;" glyph-name="mouse" data-tags="mouse" d="M512-64v0c-211.2 0-384 172.8-384 384v256c0 211.2 172.8 384 384 384v0c211.2 0 384-172.8 384-384v-256c0-211.2-172.8-384-384-384zM896 576h-768v-64h768v64zM576 896h-128v-224h128v224z" />
<glyph unicode="&#xe624;" glyph-name="keyboard" data-tags="keyboard" d="M1024 128h-1024v576h1024v-576zM640 576v-64h64v64h-64zM512 576v-64h64v64h-64zM384 576v-64h64v64h-64zM256 512h64v64h-64v-64zM192 320h-64v-64h64v64zM640 320h-384v-64h384v64zM896 320h-192v-64h192v64zM896 576h-128v-64h128v64zM128 512h64v64h-64v-64zM576 448v-64h64v64h-64zM448 448v-64h64v64h-64zM320 448v-64h64v64h-64zM896 448h-192v-64h192v64zM128 384h128v64h-128v-64z" />
<glyph unicode="&#xe625;" glyph-name="keyboard-up" data-tags="keyboard-up" d="M1024 0h-1024v576h1024v-576zM640 448v-64h64v64h-64zM512 448v-64h64v64h-64zM384 448v-64h64v64h-64zM256 384h64v64h-64v-64zM192 192h-64v-64h64v64zM640 192h-384v-64h384v64zM896 192h-192v-64h192v64zM896 448h-128v-64h128v64zM320 640l192 192 188.8-192h-380.8zM128 384h64v64h-64v-64zM576 320v-64h64v64h-64zM448 320v-64h64v64h-64zM320 320v-64h64v64h-64zM896 320h-192v-64h192v64zM128 256h128v64h-128v-64z" />
<glyph unicode="&#xe626;" glyph-name="keyboard-down" data-tags="keyboard-down" d="M1024 256h-1024v576h1024v-576zM640 704v-64h64v64h-64zM512 704v-64h64v64h-64zM384 704v-64h64v64h-64zM256 640h64v64h-64v-64zM192 448h-64v-64h64v64zM640 448h-384v-64h384v64zM896 448h-192v-64h192v64zM896 704h-128v-64h128v64zM704 192l-192-192-192 192h384zM128 640h64v64h-64v-64zM576 576v-64h64v64h-64zM448 576v-64h64v64h-64zM320 576v-64h64v64h-64zM896 576h-192v-64h192v64zM128 512h128v64h-128v-64z" />
<glyph unicode="&#xe627;" glyph-name="floppy" data-tags="floppy" d="M768 960h-704v-1024h896v832l-192 192zM704 704h-384v256h384v-256zM640 896h-64v-128h64v128zM800 384h-576v64h576v-64zM800 256h-576v64h576v-64zM800 128h-576v64h576v-64z" />
<glyph unicode="&#xe628;" glyph-name="floppy-warning" data-tags="floppy-warning" d="M768 960h-704v-1024h896v832l-192 192zM704 704h-384v256h384v-256zM640 896h-64v-128h64v128zM576 256h-128v320h128v-320zM576 64h-128v128h128v-128z" />
<glyph unicode="&#xe629;" glyph-name="floppy-remove" data-tags="floppy-remove" d="M640 896h-64v-128h64v128zM768 960h-64v-256h-384v256h-256v-1024h896v832l-192 192zM736 147.2l-83.2-83.2-140.8 140.8-140.8-140.8-83.2 83.2 140.8 140.8-140.8 140.8 83.2 83.2 140.8-140.8 140.8 140.8 83.2-83.2-140.8-140.8 140.8-140.8z" />
<glyph unicode="&#xe62a;" glyph-name="sd" data-tags="sd" d="M704 960h-640v-1024h896v768l-256 256zM448 768h128v-64h64v-192h-64v-64h-128v320zM192 512h128v64h-128v192h192v-64h-128v-64h128v-192h-192v64zM832 64h-640v64h640v-64zM832 256h-640v64h640v-64zM512 512h64v192h-64v-192z" />
<glyph unicode="&#xe62b;" glyph-name="sd-back" data-tags="sd-back" d="M64 704v-768h896v1024h-640l-256-256zM768 832h64v-192h-64v192zM640 832h64v-192h-64v192zM512 832h64v-192h-64v192z" />
<glyph unicode="&#xe62c;" glyph-name="sd-warning" data-tags="sd-warning" d="M320 960l-256-256v-768h896v1024h-640zM576 64h-128v64h128v-64zM576 192h-128v320h128v-320zM576 640h-64v192h64v-192zM704 640h-64v192h64v-192zM832 640h-64v192h64v-192z" />
<glyph unicode="&#xe62d;" glyph-name="sd-remove" data-tags="sd-remove" d="M320 960l-256-256v-768h896v1024h-640zM640 832h64v-192h-64v192zM512 832h64v-192h-64v192zM736 147.2l-83.2-83.2-140.8 140.8-140.8-140.8-83.2 83.2 140.8 140.8-140.8 140.8 83.2 83.2 140.8-140.8 140.8 140.8 83.2-83.2-140.8-140.8 140.8-140.8zM832 640h-64v192h64v-192z" />
<glyph unicode="&#xe62e;" glyph-name="film" data-tags="film" d="M0 832v-768h1024v768h-1024zM192 128h-128v128h128v-128zM192 384h-128v128h128v-128zM192 640h-128v128h128v-128zM768 128h-512v640h512v-640zM960 128h-128v128h128v-128zM960 384h-128v128h128v-128zM960 640h-128v128h128v-128zM384 640v-384l256 192-256 192z" />
<glyph unicode="&#xe62f;" glyph-name="server-up" data-tags="server-up" d="M832 188.8h64v-64h-64v64zM1024 256h-1024v-192h1024v192zM576 320h-128v384h128v-384zM512 896l-192-192h384l-192 192z" />
<glyph unicode="&#xe630;" glyph-name="server-down" data-tags="server-down" d="M832 188.8h64v-64h-64v64zM1024 256h-1024v-192h1024v192zM448 892.8h128v-380.8h-128v380.8zM512 320l192 192h-384l192-192z" />
<glyph unicode="&#xe631;" glyph-name="server-connect" data-tags="server-connect" d="M0 320v-192h1024v192h-1024zM960 188.8h-64v64h64v-64zM560 812.8c19.2 16 38.4 28.8 64 28.8s48-9.6 64-28.8c19.2-19.2 25.6-38.4 25.6-64s-6.4-44.8-25.6-64l-86.4-86.4 41.6-41.6 86.4 86.4c28.8 28.8 44.8 60.8 41.6 105.6 0 38.4-9.6 73.6-38.4 105.6-32 28.8-67.2 41.6-108.8 41.6s-76.8-12.8-105.6-41.6l-86.4-86.4 41.6-41.6 86.4 86.4zM412.8 384c41.6 0 76.8 12.8 105.6 41.6l86.4 86.4-41.6 41.6-86.4-83.2c-19.2-16-38.4-25.6-64-25.6s-44.8 6.4-64 25.6c-16 19.2-28.8 38.4-28.8 67.2 0 25.6 9.6 44.8 28.8 60.8l86.4 86.4-44.8 41.6-89.6-86.4c-25.6-28.8-41.6-64-41.6-105.6 3.2-41.6 12.8-80 41.6-108.8s67.2-41.6 112-41.6zM416 576l38.4-41.6 166.4 169.6-38.4 41.6-166.4-169.6z" />
<glyph unicode="&#xe632;" glyph-name="server-disconnect" data-tags="server-disconnect" d="M896 124.8h64v-64h-64v64zM1024 192h-1024v-192h1024v192zM470.4 406.4c-19.2-16-38.4-25.6-64-25.6s-44.8 6.4-64 25.6c-16 19.2-28.8 38.4-28.8 67.2 0 25.6 9.6 44.8 28.8 60.8l86.4 86.4-44.8 41.6-86.4-86.4c-25.6-28.8-41.6-64-41.6-105.6 3.2-41.6 12.8-80 41.6-108.8s67.2-41.6 108.8-41.6c41.6 0 76.8 12.8 105.6 41.6l86.4 86.4-41.6 41.6-86.4-83.2zM726.4 790.4c-32 28.8-67.2 41.6-108.8 41.6s-76.8-12.8-105.6-41.6l-86.4-86.4 41.6-41.6 86.4 86.4c19.2 16 38.4 28.8 64 28.8s48-9.6 64-28.8c19.2-19.2 25.6-38.4 25.6-64s-6.4-44.8-25.6-64l-86.4-86.4 41.6-41.6 86.4 86.4c28.8 28.8 44.8 60.8 41.6 105.6 0 38.4-9.6 73.6-38.4 105.6zM160 787.2l44.8 44.8 147.2-147.2-48-44.8-144 147.2zM352 864h64v-128h-64v128zM128 640h128v-64h-128v64zM640 435.2l44.8 44.8 147.2-150.4-44.8-41.6-147.2 147.2zM736 544h128v-64h-128v64zM576 384h64v-128h-64v128z" />
<glyph unicode="&#xe633;" glyph-name="clock" data-tags="clock" d="M528 656h-64v-256h256v64h-192v192zM496 848c-230.4 0-416-185.6-416-416s185.6-416 416-416 416 185.6 416 416-185.6 416-416 416zM496 144c-163.2 0-288 124.8-288 288s124.8 288 288 288 288-124.8 288-288-124.8-288-288-288z" />
<glyph unicode="&#xe634;" glyph-name="stopwatch" data-tags="stopwatch" d="M576 768h-64c-214.4-16-384-198.4-384-416 0-230.4 185.6-416 416-416s416 185.6 416 416c0 217.6-169.6 400-384 416zM544 64c-160 0-288 128-288 288 0 150.4 115.2 275.2 262.4 288h54.4c147.2-12.8 262.4-137.6 262.4-288-3.2-160-131.2-288-291.2-288zM512 320h64v256h-64v-256zM704 960h-320v-128h320v128z" />
<glyph unicode="&#xe635;" glyph-name="stopwatch-remove" data-tags="stopwatch-remove" d="M518.4 640h54.4c147.2-12.8 262.4-137.6 262.4-288 0-28.8-6.4-57.6-12.8-86.4l96-96c25.6 54.4 41.6 118.4 41.6 182.4 0 217.6-169.6 400-384 416h-64c-54.4-3.2-105.6-19.2-150.4-41.6l99.2-99.2c19.2 6.4 38.4 9.6 57.6 12.8zM576 512v64h-64l64-64zM704 960h-320v-128h320v128zM128 704l92.8-92.8c-57.6-70.4-92.8-160-92.8-259.2 0-230.4 185.6-416 416-416 99.2 0 188.8 35.2 259.2 92.8l92.8-92.8 64 64-768 768-64-64zM310.4 521.6l403.2-403.2c-48-35.2-105.6-54.4-169.6-54.4-160 0-288 128-288 288 0 64 19.2 121.6 54.4 169.6z" />
<glyph unicode="&#xe636;" glyph-name="alarm" data-tags="alarm" d="M576 768h-64c-214.4-16-384-198.4-384-416 0-230.4 185.6-416 416-416s416 185.6 416 416c0 217.6-169.6 400-384 416zM544 64c-160 0-288 128-288 288 0 150.4 115.2 275.2 262.4 288h54.4c147.2-12.8 262.4-137.6 262.4-288-3.2-160-131.2-288-291.2-288zM576 576h-64v-256h256v64h-192v192zM384 864l-96 96-224-224 96-96 224 224zM1024 736l-224 224-96-96 224-224 96 96z" />
<glyph unicode="&#xe700;" glyph-name="barcode" data-tags="barcode" d="M0 896h128v-896h-128v896zM192 896h64v-896h-64v896zM320 896h64v-896h-64v896zM448 896h128v-896h-128v896zM640 896h128v-896h-128v896zM832 896h64v-896h-64v896zM960 896h64v-896h-64v896z" />
<glyph unicode="&#xe769;" glyph-name="qrcode" data-tags="qrcode" d="M320 896h-256v-256h256v256zM384 960v0-384h-384v384h384zM128 832h128v-128h-128v128zM960 896h-256v-256h256v256zM1024 960v0-384h-384v384h384zM768 832h128v-128h-128v128zM320 256h-256v-256h256v256zM384 320v0-384h-384v384h384zM128 192h128v-128h-128v128zM512 960h64v-64h-64v64zM448 896h64v-64h-64v64zM512 832h64v-64h-64v64zM448 768h64v-64h-64v64zM512 704h64v-64h-64v64zM448 640h64v-64h-64v64zM512 576h64v-64h-64v64zM576 448h64v-64h-64v64zM512 384h64v-64h-64v64zM576 320h64v-64h-64v64zM512 256h64v-64h-64v64zM576 192h64v-64h-64v64zM512 128h64v-64h-64v64zM576 64h64v-64h-64v64zM512 0h64v-64h-64v64zM64 512h64v-64h-64v64zM128 448h64v-64h-64v64zM0 448h64v-64h-64v64zM256 512h64v-64h-64v64zM320 448h64v-64h-64v64zM384 512h64v-64h-64v64zM704 448h64v-64h-64v64zM640 512h64v-64h-64v64zM832 448h64v-64h-64v64zM768 512h64v-64h-64v64zM960 448h64v-64h-64v64zM896 512h64v-64h-64v64zM704 320h64v-64h-64v64zM640 384h64v-64h-64v64zM832 320h64v-64h-64v64zM960 320h64v-64h-64v64zM896 384h64v-64h-64v64zM704 192h64v-64h-64v64zM640 256h64v-64h-64v64zM768 256h64v-64h-64v64zM960 192h64v-64h-64v64zM896 256h64v-64h-64v64zM640 128h64v-64h-64v64zM832 64h64v-64h-64v64zM768 128h64v-64h-64v64zM960 64h64v-64h-64v64zM640 0h64v-64h-64v64zM768 0h64v-64h-64v64zM896 0h64v-64h-64v64zM448 448h64v-64h-64v64zM448 320h64v-64h-64v64zM448 192h64v-64h-64v64zM448 64h64v-64h-64v64z" />
<glyph unicode="&#xe800;" glyph-name="folder" data-tags="folder" d="M448 832h-448v-832h1024v704h-448l-128 128z" />
<glyph unicode="&#xe801;" glyph-name="folder-open" data-tags="folder-open" d="M896 576v128h-320l-128 128h-448v-832l128 576h768zM195.2 512l-192-512h828.8l192 512h-828.8z" />
<glyph unicode="&#xe802;" glyph-name="folder-cloud" data-tags="folder-cloud" d="M448 832h-448v-832h1024v704h-448l-128 128zM800 236.8c0-64-54.4-108.8-128-108.8h-288c-89.6 0-160 57.6-160 137.6 0 67.2 44.8 121.6 115.2 137.6 25.6 57.6 99.2 108.8 172.8 108.8 99.2 0 172.8-76.8 172.8-163.2v0c60.8-6.4 115.2-57.6 115.2-112z" />
<glyph unicode="&#xe803;" glyph-name="folder-add" data-tags="folder-add" d="M960 256h-128v128h-128v-128h-128v-128h128v-128h128v128h128v128zM576 640l-128 128h-448v-832h640v128h-128v256h128v128h256v-128h128v320h-448zM896-64h128v128h-128v-128z" />
<glyph unicode="&#xe804;" glyph-name="folder-del" data-tags="folder-del" d="M960 64v128h-384v-128h384zM1024 640h-448l-128 128h-448v-832h1024v64h-512v256h512v384z" />
<glyph unicode="&#xe805;" glyph-name="folder-modify" data-tags="folder-modify" d="M953.6 297.6c3.2 3.2 6.4 9.6 6.4 16s-3.2 9.6-6.4 12.8l-51.2 51.2c-3.2 3.2-6.4 6.4-12.8 6.4s-9.6-3.2-16-6.4l-38.4-38.4 80-80 38.4 38.4zM812.8 316.8l-236.8-236.8v-80h80l236.8 236.8-80 80zM982.4 236.8l-300.8-300.8h342.4v377.6c0-22.4-9.6-44.8-25.6-60.8l-16-16zM576 640l-128 128h-448v-832h512v169.6l329.6 329.6 9.6 3.2c6.4 3.2 22.4 12.8 44.8 12.8 32 0 51.2-19.2 57.6-25.6l51.2-51.2c6.4-6.4 25.6-25.6 25.6-57.6v323.2h-454.4z" />
<glyph unicode="&#xe806;" glyph-name="file" data-tags="file" d="M640 640v320h-576v-1024h896v704h-320zM704 960l256-256h-256v256z" />
<glyph unicode="&#xe807;" glyph-name="file-add" data-tags="file-add" d="M640 960l256-256h-256v256zM512 60.8v259.2h128v128h256v192h-320v320h-576v-1024h640v124.8h-128zM960 128h-128v-128h-128v128h-128v128h128v128h128v-128h128v-128z" />
<glyph unicode="&#xe808;" glyph-name="file-del" data-tags="file-del" d="M640 960l256-256h-256v256zM960 128h-384v128h384v-128zM512 64v256h384v320h-320v320h-576v-1024h896v128h-384z" />
<glyph unicode="&#xe809;" glyph-name="file-modify" data-tags="file-modify" d="M812.8 316.8l-236.8-236.8v-80h80l236.8 236.8zM953.6 326.4l-51.2 51.2c-3.2 3.2-6.4 6.4-12.8 6.4s-9.6-3.2-16-6.4l-38.4-38.4 80-80 38.4 38.4c3.2 3.2 6.4 9.6 6.4 16s-3.2 9.6-6.4 12.8zM640 960v-256h256zM896-64v214.4l-214.4-214.4c124.8 0 214.4 0 214.4 0zM896 448v192h-320v320h-576v-1024c0 0 268.8 0 512 0v169.6l316.8 316.8c16 19.2 41.6 25.6 67.2 25.6z" />
<glyph unicode="&#xe80a;" glyph-name="file-cloud" data-tags="file-cloud" d="M704 960v-256h256l-256 256zM640 960h-576v-1024h896v704h-320v320zM800 236.8c0-64-54.4-108.8-128-108.8h-288c-89.6 0-160 57.6-160 137.6 0 67.2 44.8 121.6 115.2 137.6 25.6 57.6 99.2 108.8 172.8 108.8 99.2 0 172.8-76.8 172.8-163.2v0c60.8-6.4 115.2-57.6 115.2-112z" />
<glyph unicode="&#xe80b;" glyph-name="file-txt" data-tags="file-txt" d="M960 704h-256v256l256-256zM640 640h320v-704h-896v1024h576v-320zM256 384h512v64h-512v-64zM640 192h-384v-64h384v64zM256 320v-64h512v64h-512z" />
<glyph unicode="&#xe80c;" glyph-name="file-word" data-tags="file-word" d="M640 640v320h-576v-1024h896v704h-320zM704 960l256-256h-256v256zM256 128h-64v384h64v-384zM832 128h-64v384h64v-384zM512 128h-64v384h64v-384zM192 128v0h640c0-35.2-28.8-64-64-64h-512c-35.2 0-64 28.8-64 64zM288 128h-32v32c0-19.2 12.8-32 32-32zM544 128h-32v32c0-19.2 12.8-32 32-32zM768 160v-32h-32c19.2 0 32 12.8 32 32zM448 160v-32h-32c19.2 0 32 12.8 32 32z" />
<glyph unicode="&#xe80d;" glyph-name="file-excel" data-tags="file-excel" d="M640 640v320h-576v-1024h896v704h-320zM704 960l256-256h-256v256zM576 320l256-256h-128l-192 192-192-192h-128l256 256-256 256h128l192-192 192 192h128l-256-256z" />
<glyph unicode="&#xe80e;" glyph-name="file-ppt" data-tags="file-ppt" d="M704 960v-256h256l-256 256zM640 960h-576v-1024h896v704h-320v320zM534.4 256h-214.4v-192h-64v384c0 35.2 28.8 64 64 64h384c35.2 0 64-28.8 64-64v-128c0-35.2-28.8-64-64-64h-198.4zM320 352c0-16 16-32 32-32h320c16 0 32 16 32 32v64c0 16-16 32-32 32h-320c-16 0-32-16-32-32v-64z" />
<glyph unicode="&#xe80f;" glyph-name="file-music" data-tags="file-music" d="M704 960l256-256h-256v256zM704 960l256-256h-256v256zM704 512v-128h-128v-227.2c0-51.2-57.6-92.8-128-92.8s-128 38.4-128 92.8 57.6 99.2 128 99.2c22.4 0 44.8-6.4 64-12.8v268.8h192zM960-64v704h-320v320h-576v-1024h896z" />
<glyph unicode="&#xe810;" glyph-name="file-pic" data-tags="file-pic" d="M704 700.8v259.2l256-259.2h-256zM704 512c35.2 0 64-28.8 64-64s-28.8-64-64-64-64 28.8-64 64 28.8 64 64 64zM640 640v320h-576v-1024h896v704h-320zM832 64h-640v128l224 256 288-320 128 128v-192z" />
<glyph unicode="&#xe811;" glyph-name="file-av" data-tags="file-av" d="M960 704h-256v256l256-256zM640 640h320v-704h-896v1024h576v-320zM384 352l-128 96v-256l128 96v64zM752 448h-352c-9.6 0-16-6.4-16-16v-224c0-9.6 6.4-16 16-16h352c9.6 0 16 6.4 16 16v224c0 9.6-6.4 16-16 16z" />
<glyph unicode="&#xe812;" glyph-name="file-rar" data-tags="file-rar" d="M704 960v-256h256l-256 256zM640 960h-576v-1024h896v704h-320v320zM768 448h-512v128h512v-128zM768 256h-512v128h512v-128zM768 64h-512v128h512v-128zM704 480h-64v64h64v-64zM704 288h-64v64h64v-64zM704 96h-64v64h64v-64z" />
<glyph unicode="&#xe813;" glyph-name="file-disk" data-tags="file-disk" d="M704 960v-256h256l-256 256zM640 960h-576v-1024h896v704h-320v320zM768 128h-512v64h512v-64zM672 512l96-256h-512l96 256h320z" />
<glyph unicode="&#xe814;" glyph-name="file-html" data-tags="file-html" d="M291.2 448h92.8v92.8c-38.4-22.4-70.4-54.4-92.8-92.8zM444.8 252.8h128v128h-128v-128zM256 320c0-22.4 3.2-44.8 9.6-67.2h118.4v128h-121.6c-3.2-19.2-6.4-38.4-6.4-60.8zM704 960v-256h256l-256 256zM384 99.2v89.6h-92.8c22.4-35.2 54.4-67.2 92.8-89.6zM444.8 73.6c22.4-6.4 41.6-9.6 67.2-9.6 22.4 0 41.6 3.2 64 9.6v118.4h-128v-118.4zM640 960h-576v-1024h896v704h-320v320zM832 320c0-176-144-320-320-320s-320 144-320 320 144 320 320 320 320-144 320-320zM636.8 544v-96h96c-22.4 38.4-54.4 73.6-96 96zM444.8 566.4v-118.4h128v118.4h3.2c-19.2 6.4-41.6 9.6-64 9.6s-44.8-3.2-67.2-9.6zM732.8 188.8h-92.8v-92.8c38.4 22.4 70.4 54.4 92.8 92.8zM768 320c0 22.4-3.2 41.6-6.4 60.8h-121.6v-128h121.6c3.2 22.4 6.4 44.8 6.4 67.2z" />
<glyph unicode="&#xe815;" glyph-name="file-iso" data-tags="file-iso" d="M425.6 470.4c12.8 6.4 28.8 12.8 41.6 16 6.4 3.2 9.6 9.6 9.6 16-3.2 6.4-9.6 9.6-16 9.6-16-3.2-32-12.8-48-19.2-16-9.6-28.8-19.2-41.6-32s-22.4-25.6-32-41.6c-9.6-16-16-32-19.2-48-3.2-6.4 3.2-12.8 9.6-16 0 0 3.2 0 3.2 0 6.4 0 9.6 3.2 12.8 9.6 3.2 16 9.6 28.8 16 41.6s16 25.6 28.8 35.2c9.6 12.8 22.4 22.4 35.2 28.8zM704 960v-256h256l-256 256zM384 320c0-70.4 57.6-128 128-128s128 57.6 128 128-57.6 128-128 128c-70.4 0-128-57.6-128-128zM576 320c0-35.2-28.8-64-64-64s-64 28.8-64 64 28.8 64 64 64 64-28.8 64-64zM640 960h-576v-1024h896v704h-320v320zM768 320c0-140.8-115.2-256-256-256s-256 115.2-256 256c0 140.8 115.2 256 256 256s256-115.2 256-256z" />
<glyph unicode="&#xe816;" glyph-name="file-css" data-tags="file-css" d="M704 960v-256h256l-256 256zM640 960h-576v-1024h896v704h-320v320zM256 448v-192h64v-64h-128v320h128v-64h-64zM448 448v-64h128v-192h-192v64h128v64h-128v192h192v-64h-128zM704 448v-64h128v-192h-192v64h128v64h-128v192h192v-64h-128z" />
<glyph unicode="&#xe817;" glyph-name="file-js" data-tags="file-js" d="M704 960v-256h256l-256 256zM640 960h-576v-1024h896v704h-320v320zM448 192h-192v128h64v-64h64v128h64v-192zM448 384h-64v128h64v-128zM768 512v-64h-128v-64h128v-192h-192v64h128v64h-128v192h192z" />
<glyph unicode="&#xe818;" glyph-name="file-pdf" data-tags="file-pdf" d="M704 960v-256h256l-256 256zM640 960h-576v-1024h896v704h-320v320zM704 512h128v-64h-64v-64h64v-64h-64v-128h-64v320zM384 320h-128v-128h-64v320h192v-192zM640 192h-192v192h128v128h64v-320zM512 256h64v64h-64v-64zM320 448h-64v-64h64v64z" />
<glyph unicode="&#xe900;" glyph-name="refresh" data-tags="refresh" d="M505.6 960l256-256-256-256v204.8c-83.2 0-156.8-28.8-217.6-89.6s-89.6-131.2-89.6-217.6 32-156.8 89.6-217.6c60.8-60.8 131.2-89.6 217.6-89.6s156.8 28.8 217.6 89.6c60.8 60.8 89.6 131.2 89.6 217.6h102.4c0-112-41.6-211.2-121.6-291.2s-176-118.4-288-118.4-208 38.4-288 118.4-121.6 179.2-121.6 291.2c0 112 38.4 208 118.4 288s176 118.4 291.2 118.4v208z" />
<glyph unicode="&#xe901;" glyph-name="reload" data-tags="reload" d="M521.6 755.2c112 0 211.2-38.4 291.2-118.4s118.4-176 118.4-288c0-112-41.6-211.2-121.6-291.2s-176-118.4-288-118.4-208 38.4-288 118.4-121.6 176-121.6 291.2h102.4c0-83.2 28.8-156.8 89.6-217.6s131.2-89.6 217.6-89.6 156.8 28.8 217.6 89.6c60.8 60.8 89.6 131.2 89.6 217.6s-28.8 156.8-89.6 217.6c-60.8 60.8-131.2 89.6-217.6 89.6v-208l-256 256 256 256v-204.8z" />
<glyph unicode="&#xe902;" glyph-name="loop" data-tags="loop" d="M512 160c-160 0-288 128-288 288 0 44.8 9.6 86.4 28.8 124.8l-70.4 70.4c-35.2-57.6-54.4-124.8-54.4-195.2 0-211.2 172.8-384 384-384v-128l192 192-192 192v-160zM512 832v128l-192-192 192-192v160c160 0 288-128 288-288 0-44.8-9.6-86.4-28.8-124.8l70.4-70.4c35.2 57.6 54.4 124.8 54.4 195.2 0 211.2-172.8 384-384 384z" />
<glyph unicode="&#xe903;" glyph-name="history" data-tags="history" d="M224 224v0l-224 224h448zM592 864c-233.6 0-422.4-185.6-432-416h96c9.6 179.2 153.6 320 336 320 185.6 0 336-150.4 336-336 0-179.2-140.8-326.4-320-336v-96c230.4 9.6 416 198.4 416 432 0 236.8-195.2 432-432 432zM512 640h96v-256h-96v256zM512 448h256v-96h-256v96z" />
<glyph unicode="&#xe904;" glyph-name="restore" data-tags="restore" d="M224 224v0l-224 224h448zM592 864c-233.6 0-422.4-185.6-432-416h96c9.6 179.2 153.6 320 336 320 185.6 0 336-150.4 336-336 0-179.2-140.8-326.4-320-336v-96c230.4 9.6 416 198.4 416 432 0 236.8-195.2 432-432 432zM704 448c0-53.019-42.981-96-96-96s-96 42.981-96 96c0 53.019 42.981 96 96 96s96-42.981 96-96z" />
<glyph unicode="&#xe905;" glyph-name="hourglass" data-tags="hourglass" d="M729.6 448c137.6 86.4 230.4 256 230.4 448 0 22.4 0 41.6-3.2 64h-889.6c-3.2-22.4-3.2-41.6-3.2-64 0-192 92.8-361.6 230.4-448-137.6-86.4-230.4-256-230.4-448 0-22.4 0-41.6 3.2-64h889.6c3.2 22.4 3.2 41.6 3.2 64 0 192-92.8 361.6-230.4 448zM160 0c0 185.6 80 345.6 224 396.8v99.2c-144 54.4-224 214.4-224 400v0h704c0-185.6-80-345.6-224-396.8v-99.2c144-51.2 224-211.2 224-396.8h-704zM620.8 291.2c-73.6 38.4-76.8 92.8-76.8 124.8v64c0 32 3.2 86.4 76.8 124.8 38.4 22.4 70.4 57.6 96 99.2h-409.6c25.6-41.6 57.6-76.8 96-99.2 73.6-38.4 76.8-92.8 76.8-124.8v-64c0-32-3.2-86.4-76.8-124.8-73.6-41.6-128-124.8-144-227.2h502.4c-16 99.2-70.4 185.6-140.8 227.2z" />
<glyph unicode="&#xea00;" glyph-name="map" data-tags="map" d="M640 832l-320 128-320-128v-896l320 128 320-128 320 128v896l-320-128zM640 0l-320 140.8v755.2l320-140.8v-755.2z" />
<glyph unicode="&#xea01;" glyph-name="position" data-tags="position" d="M512 960c-176 0-320-144-320-320 0-320 320-704 320-704s320 384 320 704c0 176-144 320-320 320zM512 448c-105.6 0-192 86.4-192 192s86.4 192 192 192 192-86.4 192-192-86.4-192-192-192z" />
<glyph unicode="&#xea02;" glyph-name="position-remove" data-tags="position-remove" d="M160 864l-64-64 102.4-102.4c-3.2-19.2-6.4-38.4-6.4-57.6 0-320 320-704 320-704s92.8 112 179.2 268.8l172.8-172.8 64 64-768 768zM339.2 556.8l89.6-89.6c-38.4 19.2-70.4 51.2-89.6 89.6zM512 832c105.6 0 192-86.4 192-192 0-60.8-28.8-115.2-73.6-150.4l134.4-134.4c38.4 92.8 67.2 192 67.2 284.8 0 176-144 320-320 320-96 0-182.4-41.6-240-112l89.6-89.6c35.2 44.8 89.6 73.6 150.4 73.6z" />
<glyph unicode="&#xea03;" glyph-name="position-place" data-tags="position-place" d="M512 960c-160 0-288-124.8-288-281.6 0-278.4 288-614.4 288-614.4s288 336 288 617.6c0 153.6-128 278.4-288 278.4zM512 512c-96 0-172.8 76.8-172.8 169.6s76.8 166.4 172.8 166.4 172.8-76.8 172.8-169.6-76.8-166.4-172.8-166.4zM512 64c-124.8 0-224-28.8-224-64s99.2-64 224-64 224 28.8 224 64-99.2 64-224 64z" />
<glyph unicode="&#xea04;" glyph-name="position-search" data-tags="position-search" d="M646.4 246.4c76.8 118.4 153.6 275.2 153.6 425.6 0 160-128 288-288 288s-288-128-288-288c0-150.4 76.8-307.2 153.6-425.6-147.2-22.4-249.6-83.2-249.6-150.4 0-89.6 172.8-160 384-160s384 70.4 384 160c0 67.2-102.4 128-249.6 150.4zM512 844.8c96 0 172.8-76.8 172.8-172.8s-76.8-172.8-172.8-172.8-172.8 76.8-172.8 172.8 76.8 172.8 172.8 172.8zM512 0c-211.2 0-320 70.4-320 96 0 19.2 76.8 73.6 224 89.6 51.2-73.6 96-121.6 96-121.6s41.6 48 96 121.6c147.2-16 224-70.4 224-89.6 0-25.6-108.8-96-320-96z" />
<glyph unicode="&#xea05;" glyph-name="compass-arrow" data-tags="compass-arrow" d="M0 512l960 448h64v-64l-448-960h-64v512h-512v64z" />
<glyph unicode="&#xea06;" glyph-name="compass" data-tags="compass" d="M512 960c-281.6 0-512-230.4-512-512s230.4-512 512-512 512 230.4 512 512-230.4 512-512 512zM96 448c0 230.4 185.6 416 416 416 108.8 0 208-41.6 284.8-112l-412.8-176-176-412.8c-70.4 76.8-112 176-112 284.8zM585.6 374.4l-256-108.8 108.8 256 147.2-147.2zM512 32c-108.8 0-208 41.6-284.8 112l412.8 176 176 412.8c70.4-76.8 112-176 112-284.8 0-230.4-185.6-416-416-416z" />
<glyph unicode="&#xeb00;" glyph-name="person" data-tags="person" d="M512 512c105.6 0 192 86.4 192 192s-86.4 192-192 192-192-86.4-192-192 86.4-192 192-192zM896 0h-768v192c0 140.8 115.2 256 256 256h256c140.8 0 256-115.2 256-256v-192z" />
<glyph unicode="&#xeb01;" glyph-name="persons" data-tags="persons" d="M640 448c105.6 0 192 86.4 192 192s-86.4 192-192 192-192-86.4-192-192 86.4-192 192-192zM1024-64h-768v192c0 140.8 115.2 256 256 256h256c140.8 0 256-115.2 256-256v-192zM358.4 579.2c-92.8 9.6-166.4 92.8-166.4 188.8 0 105.6 86.4 192 192 192 54.4 0 102.4-22.4 137.6-57.6-99.2-44.8-169.6-147.2-169.6-262.4 0-22.4 3.2-41.6 6.4-60.8zM160 64h-160v192c0 140.8 115.2 256 256 256h124.8c9.6-16 19.2-32 28.8-48-144-41.6-249.6-176-249.6-336v-64z" />
<glyph unicode="&#xeb02;" glyph-name="person-add" data-tags="person-add" d="M384 576c105.6 0 192 86.4 192 192s-86.4 192-192 192-192-86.4-192-192 86.4-192 192-192zM960 128h-128v-128h-128v128h-128v128h128v128h128v-128h128v-128zM512 64h-512v192c0 140.8 115.2 256 256 256h256c64 0 124.8-25.6 169.6-64h-41.6v-128h-128v-256z" />
<glyph unicode="&#xeb03;" glyph-name="person-del" data-tags="person-del" d="M384 576c105.6 0 192 86.4 192 192s-86.4 192-192 192-192-86.4-192-192 86.4-192 192-192zM576 192h384v-128h-384v128zM512 64h-512v192c0 140.8 115.2 256 256 256h256c140.8 0 256-115.2 256-256h-256v-192z" />
<glyph unicode="&#xeb04;" glyph-name="person-modify" data-tags="person-modify" d="M953.6 326.4l-51.2 51.2c-3.2 3.2-6.4 6.4-12.8 6.4s-9.6-3.2-16-6.4l-38.4-38.4 80-80 38.4 38.4c3.2 3.2 6.4 9.6 6.4 16s-3.2 9.6-6.4 12.8zM576 80v-80h80l236.8 236.8-80 80-236.8-236.8zM384 576c105.6 0 192 86.4 192 192s-86.4 192-192 192-192-86.4-192-192 86.4-192 192-192zM425.6 64h-425.6v192c0 140.8 115.2 256 256 256h256c96 0 182.4-54.4 224-134.4l-310.4-313.6z" />
<glyph unicode="&#xeb05;" glyph-name="phone-book" data-tags="phone-book" d="M960-64h-768v1024h768v-1024zM576 704c-70.4 0-128-57.6-128-128s57.6-128 128-128 128 57.6 128 128-57.6 128-128 128zM768 256c0 70.4-57.6 128-128 128h-128c-70.4 0-128-57.6-128-128v-64h384v64zM128 896h-128v-128h128v128zM128 704h-128v-128h128v128zM128 512h-128v-128h128v128zM128 320h-128v-128h128v128zM128 128h-128v-128h128v128z" />
<glyph unicode="&#xeb06;" glyph-name="work-card" data-tags="work-card" d="M896 832h-201.6c-25.6 73.6-96 128-182.4 128s-153.6-54.4-182.4-128h-201.6c-35.2 0-64-28.8-64-64v-768c0-35.2 28.8-64 64-64h768c35.2 0 64 28.8 64 64v768c0 35.2-28.8 64-64 64zM512 832c35.2 0 64-28.8 64-64s-28.8-64-64-64-64 28.8-64 64 28.8 64 64 64zM512 576c70.4 0 128-57.6 128-128s-57.6-128-128-128-128 57.6-128 128 57.6 128 128 128zM704 64h-384v64c0 70.4 57.6 128 128 128h128c70.4 0 128-57.6 128-128v-64z" />
<glyph unicode="&#xeb07;" glyph-name="id-card" data-tags="id-card" d="M1024 64h-1024v768h1024v-768zM320 704c-73.6 0-128-54.4-128-128s54.4-128 128-128 128 54.4 128 128-54.4 128-128 128zM384 384h-128c-70.4 0-128-57.6-128-128v-64h384v64c0 70.4-57.6 128-128 128zM896 512h-192v-64h192v64zM896 256h-256v-64h256v64zM896 384h-256v-64h256v64z" />
<glyph unicode="&#xeb08;" glyph-name="pic" data-tags="pic" d="M736 576c54.4 0 96 41.6 96 96s-41.6 96-96 96-96-41.6-96-96 41.6-96 96-96zM896 512l-224-192h-64l-256 320-224-384v-128h768v384zM0 896v-896h1024v896h-1024zM960 64h-896v768h896v-768z" />
<glyph unicode="&#xeb09;" glyph-name="pics" data-tags="pics" d="M832 576c0-35.2-28.8-64-64-64s-64 28.8-64 64 28.8 64 64 64 64-28.8 64-64zM896 128h-640v128l192 320 208-288h48l192 160v-320zM896 832h-896v64h896v-64zM0 192v704h64v-704h-64zM64 256h64v-64h-64v64zM896 832v-64h-64v64h64zM960 704h-832v64h832v-64zM128 64v704h64v-704h-64zM960 0h-832v64h832v-64zM960 0v768h64v-768h-64z" />
<glyph unicode="&#xeb0a;" glyph-name="attachment" data-tags="attachment" d="M697.6 633.6l-64 64-326.4-323.2c-54.4-54.4-54.4-140.8 0-195.2s140.8-54.4 195.2 0l390.4 390.4c89.6 89.6 89.6 233.6 0 323.2s-233.6 89.6-323.2 0l-409.6-409.6c0 0 0 0 0 0-128-124.8-128-329.6-3.2-454.4s326.4-124.8 454.4 0c0 0 0 0 0 0v0l278.4 278.4-64 64-278.4-275.2c0 0 0 0 0 0-89.6-89.6-233.6-89.6-323.2 0s-89.6 233.6 0 323.2c0 0 0 0 0 0v0l409.6 409.6c54.4 54.4 140.8 54.4 195.2 0s54.4-140.8 0-195.2l-390.4-390.4c-19.2-19.2-48-19.2-64 0-19.2 19.2-19.2 48 0 64l323.2 326.4z" />
<glyph unicode="&#xeb0b;" glyph-name="attachment-remove" data-tags="attachment-remove" d="M96 800l188.8-188.8-128-128c0 0 0 0 0 0-124.8-124.8-124.8-329.6 0-454.4s326.4-124.8 451.2 0c0 0 0 0 0 0l128 128 128-128 64 64-768 771.2-64-64zM544 352l-108.8-108.8c-19.2-19.2-48-19.2-64 0-19.2 19.2-19.2 48 0 64l108.8 108.8 64-64zM416 480l-108.8-108.8c-54.4-54.4-54.4-140.8 0-195.2s140.8-54.4 195.2 0l108.8 108.8 64-64-128-128c0 0 0 0 0 0-89.6-89.6-233.6-89.6-323.2 0s-89.6 233.6 0 323.2c0 0 0 0 0 0v0l128 128 64-64zM633.6 828.8c54.4 54.4 140.8 54.4 195.2 0s54.4-140.8 0-195.2l-156.8-153.6 64-64 153.6 153.6c89.6 89.6 89.6 233.6 0 323.2s-233.6 89.6-323.2 0l-153.6-153.6 64-64 156.8 153.6zM544 608l64-64 89.6 89.6-64 64-89.6-89.6z" />
<glyph unicode="&#xeb0c;" glyph-name="audio" data-tags="audio" d="M832 896v-128h-192v-576c0-105.6-86.4-192-192-192s-192 86.4-192 192 86.4 192 192 192c22.4 0 44.8-3.2 64-9.6v521.6h320z" />
<glyph unicode="&#xeb0d;" glyph-name="audio-list" data-tags="audio-list" d="M704 896v-521.6c-19.2 6.4-41.6 9.6-64 9.6-105.6 0-192-86.4-192-192s86.4-192 192-192 192 86.4 192 192v576h192v128h-320zM640 832h-576v-128h576v128zM640 576h-576v-128h576v128zM64 192h320v128h-320v-128z" />
<glyph unicode="&#xeb0e;" glyph-name="talk-round-group" data-tags="talk-round-group" d="M966.4 96c0-41.6 22.4-76.8 57.6-92.8v-12.8c-9.6 0-19.2-3.2-28.8-3.2-60.8 0-115.2 25.6-153.6 67.2-22.4-6.4-48-9.6-73.6-9.6-140.8 0-256 102.4-256 227.2s115.2 227.2 256 227.2 256-102.4 256-227.2c0-48-16-96-48-131.2-6.4-16-9.6-28.8-9.6-44.8v0zM416 268.8c0 179.2 156.8 323.2 352 323.2 48 0 96-9.6 137.6-25.6-22.4 185.6-217.6 329.6-451.2 329.6-249.6 0-454.4-166.4-454.4-371.2 0-115.2 67.2-220.8 169.6-288 0-9.6 6.4-16 6.4-25.6-3.2-60.8-48-115.2-112-144v-22.4c96 0 227.2 19.2 323.2 115.2 19.2-3.2 35.2-3.2 51.2-3.2-12.8 35.2-22.4 73.6-22.4 112z" />
<glyph unicode="&#xeb0f;" glyph-name="talk-round" data-tags="talk-round" d="M512 896c281.6 0 512-185.6 512-416s-230.4-416-512-416c-25.6 0-54.4 3.2-80 6.4-108.8-112-240-131.2-368-134.4v25.6c67.2 32 128 96 128 163.2 0 9.6 0 19.2-3.2 28.8-115.2 80-188.8 195.2-188.8 326.4 0 230.4 230.4 416 512 416v0z" />
<glyph unicode="&#xeb10;" glyph-name="talk-round-right" data-tags="talk-round-right" d="M512 896c281.6 0 512-185.6 512-416 0-131.2-73.6-246.4-188.8-323.2 0-9.6-3.2-19.2-3.2-28.8 0-70.4 60.8-131.2 128-163.2v-28.8c-128 3.2-259.2 22.4-368 131.2-25.6-3.2-54.4-3.2-80-3.2-281.6 0-512 185.6-512 416s230.4 416 512 416v0z" />
<glyph unicode="&#xeb11;" glyph-name="talk-round-chat" data-tags="talk-round-chat" d="M512 896c281.6 0 512-185.6 512-416s-230.4-416-512-416c-25.6 0-54.4 3.2-80 6.4-108.8-112-240-131.2-368-134.4v25.6c67.2 32 128 96 128 163.2 0 9.6 0 19.2-3.2 28.8-115.2 80-188.8 195.2-188.8 326.4 0 230.4 230.4 416 512 416v0zM320 512h-128v-128h128v128zM576 512h-128v-128h128v128zM832 512h-128v-128h128v128z" />
<glyph unicode="&#xeb12;" glyph-name="talk-group" data-tags="talk-group" d="M768 384h-768v512h768v-512zM0 384v-192l192 192h-192zM832 128l192-192v192h-192zM896 512v-256h-512v-128h640v384h-128zM1024 640h-192v-128h192v128zM384 128v192h-128v-192h128z" />
<glyph unicode="&#xeb13;" glyph-name="talk" data-tags="talk" d="M1024 128h-1024v768h1024v-768zM0 128v-192l192 192h-192z" />
<glyph unicode="&#xeb14;" glyph-name="talk-right" data-tags="talk-right" d="M0 896h1024v-768h-1024v768zM832 128l192-192v192h-192z" />
<glyph unicode="&#xeb15;" glyph-name="talk-txt" data-tags="talk-txt" d="M1024 128h-1024v768h1024v-768zM0 128v-192l192 192h-192zM832 640h-640v-64h640v64zM704 448h-512v-64h512v64z" />
<glyph unicode="&#xeb16;" glyph-name="talk-chat" data-tags="talk-chat" d="M1024 128h-1024v768h1024v-768zM0 128v-192l192 192h-192zM320 576h-128v-128h128v128zM576 576h-128v-128h128v128zM832 576h-128v-128h128v128z" />
<glyph unicode="&#xeb17;" glyph-name="talk-info" data-tags="talk-info" d="M0 896v-960l192 192h832v768h-1024zM448 768h128v-128h-128v128zM640 256h-256v64h64v192h-64v64h192v-256h64v-64z" />
<glyph unicode="&#xeb18;" glyph-name="talk-warning" data-tags="talk-warning" d="M0 896v-960l192 192h832v768h-1024zM576 256h-128v128h128v-128zM576 448h-128v320h128v-320z" />
<glyph unicode="&#xeb19;" glyph-name="talk-question" data-tags="talk-question" d="M0 896v-960l192 192h832v768h-1024zM576 192h-128v128h128v-128zM576 460.8v-76.8h-128v192h64c35.2 0 64 28.8 64 64s-28.8 64-64 64-64-28.8-64-64h-128c0 105.6 86.4 192 192 192s192-86.4 192-192c0-83.2-54.4-153.6-128-179.2z" />
<glyph unicode="&#xeb1a;" glyph-name="talk-ok" data-tags="talk-ok" d="M0 896v-960l192 192h832v768h-1024zM419.2 268.8l-227.2 227.2 89.6 89.6 134.4-134.4 320 316.8 89.6-89.6-406.4-409.6z" />
<glyph unicode="&#xeb1b;" glyph-name="talk-cancel" data-tags="talk-cancel" d="M0 896v-960l192 192h832v768h-1024zM768 352l-96-96-160 160-160-160-96 96 160 160-160 160 96 96 160-160 160 160 96-96-160-160 160-160z" />
<glyph unicode="&#xeb1c;" glyph-name="talk-file" data-tags="talk-file" d="M0 896v-960l192 192h832v768h-1024zM704 256h-384v512h192v-192h192v-320zM576 640v128l128-128h-128z" />
<glyph unicode="&#xeb1d;" glyph-name="talk-pic" data-tags="talk-pic" d="M0 896v-960l192 192h832v768h-1024zM704 704c35.2 0 64-28.8 64-64s-28.8-64-64-64-64 28.8-64 64 28.8 64 64 64zM832 256h-640v108.8l224 275.2 288-313.6 128 121.6v-192z" />
<glyph unicode="&#xeb1e;" glyph-name="talk-music" data-tags="talk-music" d="M0 896v-960l192 192h832v768h-1024zM704 576h-128v-227.2c0-51.2-57.6-92.8-128-92.8s-128 38.4-128 92.8 57.6 99.2 128 99.2c22.4 0 44.8-6.4 64-12.8v268.8h192v-128z" />
<glyph unicode="&#xeb1f;" glyph-name="talk-av" data-tags="talk-av" d="M1024 128h-1024v768h1024v-768zM0 128v-192l192 192h-192zM384 544l-128 96v-256l128 96v64zM752 640h-352c-9.6 0-16-6.4-16-16v-224c0-9.6 6.4-16 16-16h352c9.6 0 16 6.4 16 16v224c0 9.6-6.4 16-16 16z" />
<glyph unicode="&#xeb20;" glyph-name="tips" data-tags="tips" d="M0 896v-768h320l192-192 192 192h320v768h-1024z" />
<glyph unicode="&#xeb21;" glyph-name="tips-txt" data-tags="tips-txt" d="M0 896v-768h320l192-192 192 192h320v768h-1024zM832 576h-640v64h640v-64zM736 384h-544v64h544v-64z" />
<glyph unicode="&#xeb22;" glyph-name="tips-chat" data-tags="tips-chat" d="M0 896v-768h320l192-192 192 192h320v768h-1024zM448 576h128v-128h-128v128zM192 448v128h128v-128h-128zM832 448h-128v128h128v-128z" />
<glyph unicode="&#xeb23;" glyph-name="tips-info" data-tags="tips-info" d="M0 896v-768h320l192-192 192 192h320v768h-1024zM448 768h128v-128h-128v128zM384 320h64v192h-64v64h192v-256h64v-64h-256v64z" />
<glyph unicode="&#xeb24;" glyph-name="tips-warning" data-tags="tips-warning" d="M0 896v-768h1024v768h-1024zM704 128h-384l192-192 192 192zM576 256h-128v128h128v-128zM576 448h-128v320h128v-320z" />
<glyph unicode="&#xeb25;" glyph-name="tips-question" data-tags="tips-question" d="M0 896v-768h1024v768h-1024zM704 128h-384l192-192 192 192zM576 192h-128v128h128v-128zM576 460.8v-76.8h-128v192h64c35.2 0 64 28.8 64 64s-28.8 64-64 64-64-28.8-64-64h-128c0 105.6 86.4 192 192 192s192-86.4 192-192c0-83.2-54.4-153.6-128-179.2z" />
<glyph unicode="&#xeb26;" glyph-name="tips-ok" data-tags="tips-ok" d="M0 896v-768h1024v768h-1024zM704 128h-384l192-192 192 192zM419.2 268.8l-227.2 227.2 89.6 89.6 134.4-134.4 320 316.8 89.6-89.6-406.4-409.6z" />
<glyph unicode="&#xeb27;" glyph-name="tips-cancel" data-tags="tips-cancel" d="M0 896v-768h1024v768h-1024zM704 128h-384l192-192 192 192zM768 352l-96-96-160 160-160-160-96 96 160 160-160 160 96 96 160-160 160 160 96-96-160-160 160-160z" />
<glyph unicode="&#xeb28;" glyph-name="tips-file" data-tags="tips-file" d="M0 896v-768h320l192-192 192 192h320v768h-1024zM704 640h-128v128zM512 576h192v-320h-384v512h192v-192z" />
<glyph unicode="&#xeb29;" glyph-name="tips-pic" data-tags="tips-pic" d="M0 896v-768h320l192-192 192 192h320v768h-1024zM704 704c35.2 0 64-28.8 64-64s-28.8-64-64-64-64 28.8-64 64 28.8 64 64 64zM832 256h-640v108.8l224 275.2 288-313.6 128 121.6v-192z" />
<glyph unicode="&#xeb2a;" glyph-name="tips-music" data-tags="tips-music" d="M0 896v-768h320l192-192 192 192h320v768h-1024zM704 704v-128h-128v-227.2c0-51.2-57.6-92.8-128-92.8s-128 38.4-128 92.8 57.6 99.2 128 99.2c22.4 0 44.8-6.4 64-12.8v268.8h192z" />
<glyph unicode="&#xeb2b;" glyph-name="tips-av" data-tags="tips-av" d="M0 896v-768h320l192-192 192 192h320v768h-1024zM768 624v-224c0-9.6-6.4-16-16-16h-352c-9.6 0-16 6.4-16 16v80l-128-96v256l128-96v80c0 9.6 6.4 16 16 16h352c9.6 0 16-6.4 16-16z" />
<glyph unicode="&#xeb2c;" glyph-name="group-file" data-tags="group-file" d="M640 512v320h-448v-896h768v576h-320zM704 832l256-256h-256v256zM128 0h-64v960h64v-960zM576 960v-64h-448v64h448z" />
<glyph unicode="&#xeb2d;" glyph-name="group-folder" data-tags="group-folder" d="M64 64h-64v832h64v-832zM64 896v-64h384v64h-384zM1024 640h-896v-640h896v640zM512 768h-384v-128h384v128zM512 768v-128h128z" />
<glyph unicode="&#xeb2e;" glyph-name="group-pic" data-tags="group-pic" d="M640 512v320h-448v-896h768v576h-320zM704 832l256-256h-256v256zM128 0h-64v960h64v-960zM576 960v-64h-512v64h512zM768 448c35.2 0 64-28.8 64-64s-28.8-64-64-64-64 28.8-64 64 28.8 64 64 64zM896 0h-640v108.8l224 275.2 288-313.6 128 121.6v-192z" />
<glyph unicode="&#xeb2f;" glyph-name="group-music" data-tags="group-music" d="M640 512v320h-448v-896h768v576h-320zM704 832l256-256h-256v256zM128 0h-64v960h64v-960zM576 960v-64h-512v64h512zM768 448v-128h-128v-227.2c0-51.2-57.6-92.8-128-92.8s-128 38.4-128 92.8 57.6 99.2 128 99.2c22.4 0 44.8-6.4 64-12.8v268.8h192z" />
<glyph unicode="&#xeb30;" glyph-name="group-av" data-tags="group-av" d="M704 832v-256h256l-256 256zM576 960h-512v-960h64v896h448v64zM640 832h-448v-896h768v576h-320v320zM816 320c9.6 0 16-6.4 16-16v-224c0-9.6-6.4-16-16-16h-352c-9.6 0-16 6.4-16 16v80l-128-96v256l128-96v80c0 9.6 6.4 16 16 16h352z" />
<glyph unicode="&#xeb31;" glyph-name="group-add" data-tags="group-add" d="M960 128h-768v768h768v-768zM768 576h-128v128h-128v-128h-128v-128h128v-128h128v128h128v128zM64 0h832v64h-832v-64zM64 832v-768h64v768h-64z" />
<glyph unicode="&#xeb32;" glyph-name="group-close" data-tags="group-close" d="M960 128h-768v768h768v-768zM64 0h832v64h-832v-64zM64 832v-774.4h64v774.4h-64zM768 704h-128l-64-96-64 96h-128l128-192-128-192h128l64 96 64-96h128l-128 192 128 192z" />
<glyph unicode="&#xeb33;" glyph-name="group-bookmark" data-tags="group-bookmark" d="M256 832v-896l320 320 320-320v896h-640zM128 960h64v-960h-64v960zM192 896v64h640v-64h-640z" />
<glyph unicode="&#xeb34;" glyph-name="group-briefcase" data-tags="group-briefcase" d="M896 512h-640v-64h640v64zM448 320v128h-64v-128h64zM768 320v128h-64v-128h64zM64 64h-64v576h64v-576zM0 0v64h960v-64h-960zM960 128h-768c-35.2 0-64 28.8-64 64v448c0 35.2 28.8 64 64 64h768c35.2 0 64-28.8 64-64v-448c0-35.2-28.8-64-64-64zM448 704h-128v128c0 35.2 28.8 64 64 64h64v-192zM448 768v128h256v-128h-256zM832 704h-128v192h64c35.2 0 64-28.8 64-64v-128z" />
<glyph unicode="&#xeb35;" glyph-name="mail" data-tags="mail" d="M512 464l512 240v128h-1024v-124.8l512-243.2zM512 323.2l-512 243.2v-502.4h1024v502.4l-512-243.2z" />
<glyph unicode="&#xeb36;" glyph-name="mail-add" data-tags="mail-add" d="M960 256h-128v128h-128v-128h-128v-128h128v-128h128v128h128zM896 448v-128h128v246.4l-249.6-118.4zM512 320h128v64l-128-60.8-512 243.2v-502.4h512zM0 832v-124.8l512-243.2 512 240v128z" />
<glyph unicode="&#xeb37;" glyph-name="mail-del" data-tags="mail-del" d="M0 832v-124.8l512-243.2 512 240v128h-1024zM576 64h384v128h-384v-128zM0 566.4v-502.4h512v192h512v310.4l-512-240-512 240z" />
<glyph unicode="&#xeb38;" glyph-name="mail-warning" data-tags="mail-warning" d="M832 0h128v64h-128v-64zM832 128h128v256h-128v-256zM0 566.4v-502.4h768v380.8l-256-121.6-512 243.2zM0 832v-124.8l512-243.2 512 240v128h-1024zM1024 448v118.4l-249.6-118.4h249.6z" />
<glyph unicode="&#xeb39;" glyph-name="mail-forward" data-tags="mail-forward" d="M262.4 960c-115.2-204.8-134.4-521.6 313.6-508.8v252.8l384-384-384-384v249.6c-534.4-16-595.2 470.4-313.6 774.4z" />
<glyph unicode="&#xeb3a;" glyph-name="mail-plane" data-tags="mail-plane" d="M0 422.4l288-118.4 57.6-182.4 105.6 67.2 304-192 268.8 899.2-1024-473.6zM329.6 307.2l598.4 489.6-560-617.6-38.4 128z" />
<glyph unicode="&#xeb3b;" glyph-name="mail-new" data-tags="mail-new" d="M1011.2 787.2c6.4 9.6 12.8 19.2 12.8 32s-6.4 22.4-9.6 28.8l-102.4 99.2c-6.4 9.6-16 12.8-28.8 12.8s-22.4-3.2-32-12.8l-80-80 160-160 80 80zM256 192h160l473.6 470.4-160 160-473.6-470.4v-160zM896 64h-768v768h448v128h-576v-1024h1024v576h-128v-448z" />
<glyph unicode="&#xeb3c;" glyph-name="pencil" data-tags="pencil" d="M1008 729.6l-105.6-105.6-214.4 214.4 105.6 105.6c12.8 9.6 25.6 16 41.6 16s28.8-6.4 41.6-16l134.4-134.4c6.4-9.6 12.8-22.4 12.8-38.4s-6.4-28.8-16-41.6zM0 150.4l630.4 627.2 214.4-214.4-630.4-627.2h-214.4v214.4z" />
<glyph unicode="&#xeb3d;" glyph-name="pen" data-tags="pen" d="M1017.6 668.8l-284.8 284.8c-9.6 9.6-22.4 6.4-28.8-3.2l-38.4-80 265.6-265.6 80 38.4c12.8 3.2 16 16 6.4 25.6v0zM614.4 825.6l-262.4-22.4c-16-3.2-32-6.4-38.4-28.8 0 0 0 0 0 0-70.4-342.4-313.6-678.4-313.6-678.4l57.6-57.6 272 272c-6.4 12.8-9.6 25.6-9.6 41.6 0 54.4 41.6 96 96 96s96-41.6 96-96-41.6-96-96-96c-16 0-28.8 3.2-41.6 9.6l-272-272 57.6-57.6c0 0 336 243.2 678.4 313.6 0 0 0 0 0 0 22.4 6.4 25.6 19.2 28.8 38.4l22.4 262.4-275.2 275.2z" />
<glyph unicode="&#xeb3e;" glyph-name="bell" data-tags="bell" d="M896 128h-768v128h768v-128zM576 886.4c0 3.2 0 6.4 0 9.6 0 35.2-28.8 64-64 64s-64-28.8-64-64c0-3.2 0-6.4 0-9.6-112-28.8-192-128-192-246.4v-256h512v256c0 118.4-83.2 220.8-192 246.4zM768 384h-512l-128-128h768l-128 128zM512-64c70.4 0 128 57.6 128 128h-256c0-70.4 57.6-128 128-128z" />
<glyph unicode="&#xeb3f;" glyph-name="bell-remove" data-tags="bell-remove" d="M160 864l-64-64 160-160v-256l-128-128v-128h640l96-96 64 64-768 768zM512-64c70.4 0 128 57.6 128 128h-256c0-70.4 57.6-128 128-128zM768 384v256c0 118.4-83.2 220.8-192 246.4 0 3.2 0 6.4 0 9.6 0 35.2-28.8 64-64 64s-64-28.8-64-64c0-3.2 0-6.4 0-9.6-44.8-12.8-86.4-35.2-118.4-67.2l438.4-435.2z" />
<glyph unicode="&#xeb40;" glyph-name="bell-vibrate" data-tags="bell-vibrate" d="M896 128h-768v128h768v-128zM576 886.4c0 3.2 0 6.4 0 9.6 0 35.2-28.8 64-64 64s-64-28.8-64-64c0-3.2 0-6.4 0-9.6-112-28.8-192-128-192-246.4v-256h512v256c0 118.4-83.2 220.8-192 246.4zM768 384h-512l-128-128h768l-128 128zM512-64c70.4 0 128 57.6 128 128h-256c0-70.4 57.6-128 128-128zM192 768h-64v-384h64v384zM64 704h-64v-256h64v256zM832 384h64v384h-64v-384zM960 448h64v256h-64v-256z" />
<glyph unicode="&#xeb41;" glyph-name="calendar" data-tags="calendar" d="M768 704h-128v256h128v-256zM384 960h-128v-256h128v256zM1024 832v-896h-1024v896h192v-192h256v192h128v-192h256v192h192zM320 192h-128v-128h128v128zM320 448h-128v-128h128v128zM576 192h-128v-128h128v128zM576 448h-128v-128h128v128zM832 448h-128v-128h128v128zM832 192h-128v-128h128v128z" />
<glyph unicode="&#xeb42;" glyph-name="organization" data-tags="organization" d="M960 192v320c0 35.2-28.8 64-64 64h-320v128c35.2 0 64 28.8 64 64v128c0 35.2-28.8 64-64 64h-128c-35.2 0-64-28.8-64-64v-128c0-35.2 28.8-64 64-64v-128h-320c-35.2 0-64-28.8-64-64v-320c-35.2 0-64-28.8-64-64v-128c0-35.2 28.8-64 64-64h128c35.2 0 64 28.8 64 64v128c0 35.2-28.8 64-64 64v256h256v-256c-35.2 0-64-28.8-64-64v-128c0-35.2 28.8-64 64-64h128c35.2 0 64 28.8 64 64v128c0 35.2-28.8 64-64 64v256h256v-256c-35.2 0-64-28.8-64-64v-128c0-35.2 28.8-64 64-64h128c35.2 0 64 28.8 64 64v128c0 35.2-28.8 64-64 64zM448 896h128v-128h-128v128zM192 0h-128v128h128v-128zM576 0h-128v128h128v-128zM960 0h-128v128h128v-128z" />
<glyph unicode="&#xeb43;" glyph-name="book" data-tags="book" d="M896 832v-832h-768v64h704v896h-768v-1024h896v896h-64zM192 704h512v-128h-512v128z" />
<glyph unicode="&#xeb44;" glyph-name="briefcase" data-tags="briefcase" d="M960 0h-896c-35.2 0-64 28.8-64 64v576c0 35.2 28.8 64 64 64h896c35.2 0 64-28.8 64-64v-576c0-35.2-28.8-64-64-64zM256 832v-128h128v64h256v-64h128v128c0 35.2-28.8 64-64 64h-384c-35.2 0-64-28.8-64-64zM896 448h-768v-64h768v64zM320 256v128h-64v-128h64zM768 256v128h-64v-128h64z" />
<glyph unicode="&#xeb45;" glyph-name="filebox" data-tags="filebox" d="M64 0h252.8v896h-252.8v-896zM128 608h121.6v-320h-121.6v320zM384 0h252.8v896h-252.8v-896zM448 608h121.6v-320h-121.6v320zM704 896v-896h252.8v896h-252.8zM889.6 288h-121.6v320h121.6v-320z" />
<glyph unicode="&#xeb46;" glyph-name="fork" data-tags="fork" d="M192 960c-105.6 0-192-99.2-192-224 0-105.6 64-195.2 147.2-217.6l-32-518.4c-3.2-35.2 25.6-64 60.8-64h32c35.2 0 60.8 28.8 60.8 64l-32 518.4c83.2 22.4 147.2 112 147.2 217.6 0 124.8-86.4 224-192 224zM838.4 960l-54.4-320h-41.6l-25.6 320h-25.6l-25.6-320h-41.6l-54.4 320h-25.6v-416c0-19.2 12.8-32 32-32h83.2l-32-512c-3.2-35.2 25.6-64 60.8-64h32c35.2 0 60.8 28.8 60.8 64l-32 512h83.2c19.2 0 32 12.8 32 32v416h-25.6z" />
<glyph unicode="&#xeb47;" glyph-name="glass" data-tags="glass" d="M889.6 844.8c6.4 9.6 9.6 22.4 3.2 35.2-6.4 9.6-16 16-28.8 16h-704c-12.8 0-22.4-6.4-28.8-19.2-6.4-9.6-3.2-22.4 3.2-32l313.6-400v-380.8h-192v-64h512v64h-192v380.8l313.6 400zM326.4 704l-99.2 128h572.8l-99.2-128h-374.4z" />
<glyph unicode="&#xeb48;" glyph-name="cake" data-tags="cake" d="M64 512h896v-384h-896v384zM0-64h1024v128h-1024v-128zM320 704h-128v-192h128v192zM192 832c0 32 64 115.2 64 115.2s64-83.2 64-115.2c0-96-128-96-128 0zM576 704h-128v-192h128v192zM448 832c0 32 64 115.2 64 115.2s64-83.2 64-115.2c0-96-128-96-128 0zM832 704h-128v-192h128v192zM704 832c0 32 64 115.2 64 115.2s64-83.2 64-115.2c0-96-128-96-128 0z" />
<glyph unicode="&#xeb49;" glyph-name="coffee" data-tags="coffee" d="M256 192h384c70.4 0 128 57.6 128 128v64c105.6 0 192 86.4 192 192s-86.4 192-192 192h-576c-35.2 0-64-28.8-64-64v-384c0-70.4 57.6-128 128-128zM768 675.2c0 0 3.2 0 3.2 0 54.4 0 96-41.6 96-96s-41.6-96-96-96c0 0-3.2 0-3.2 0v192zM0 128c0-70.4 57.6-128 128-128h768c70.4 0 128 57.6 128 128h-1024z" />
<glyph unicode="&#xeb4a;" glyph-name="trophy" data-tags="trophy" d="M832 800v160h-640v-160h-192v-192h128v64h-64v64h128v-96c0-153.6 108.8-284.8 256-313.6v-198.4h-64v-64h256v64h-64v198.4c147.2 28.8 256 160 256 313.6v96h128v-64h-64v-64h128v192h-192zM192-64h640v64h-640v-64z" />
<glyph unicode="&#xeb4b;" glyph-name="gift" data-tags="gift" d="M448 384h-448v192h448v-192zM960 576h-448v-192h448v192zM448 320h-384v-320h384v320zM896 320h-384v-320h384v320zM512 582.4c0-3.2 0-6.4 0-6.4h-64c0 0 0 3.2 0 6.4-32 3.2-67.2 6.4-86.4 9.6-83.2 9.6-160 83.2-169.6 169.6-9.6 83.2 51.2 144 134.4 134.4 64-6.4 124.8-54.4 153.6-115.2 28.8 60.8 86.4 108.8 153.6 115.2 83.2 9.6 144-51.2 134.4-134.4s-83.2-160-169.6-169.6c-19.2-3.2-54.4-6.4-86.4-9.6v0zM528 726.4c-6.4-44.8 28.8-76.8 73.6-73.6 44.8 6.4 86.4 44.8 89.6 89.6 6.4 44.8-28.8 76.8-73.6 73.6s-83.2-44.8-89.6-89.6zM432 726.4c-6.4 44.8-44.8 86.4-89.6 89.6-48 6.4-80-25.6-73.6-70.4s44.8-86.4 89.6-89.6c44.8-6.4 80 25.6 73.6 70.4z" />
<glyph unicode="&#xeb4c;" glyph-name="travel" data-tags="travel" d="M822.4 710.4c-25.6 124.8-128 220.8-252.8 243.2-201.6 38.4-377.6-118.4-377.6-313.6 0-57.6 19.2-112 44.8-160l83.2-288v-256h384v256l83.2 288c38.4 67.2 54.4 147.2 35.2 230.4zM384 192l-73.6 256h169.6v-256h-96zM640 192h-96v256h169.6l-73.6-256z" />
<glyph unicode="&#xeb4d;" glyph-name="rocket" data-tags="rocket" d="M960 956.8c-166.4-57.6-512-214.4-691.2-588.8l80-83.2 83.2-76.8c374.4 179.2 531.2 524.8 588.8 691.2 16 35.2-22.4 70.4-60.8 57.6zM684.8 585.6l-214.4-214.4c-9.6-9.6-25.6-9.6-35.2 0s-9.6 25.6 0 35.2l214.4 214.4c9.6 9.6 25.6 9.6 35.2 0 9.6-12.8 9.6-25.6 0-35.2zM96 380.8l128 9.6c44.8 92.8 99.2 172.8 156.8 243.2l-96-6.4c-6.4 0-12.8-3.2-16-9.6l-192-192c-19.2-16-6.4-44.8 19.2-44.8zM454.4 160l-9.6-128c-3.2-22.4 28.8-35.2 44.8-19.2l195.2 195.2c3.2 3.2 6.4 9.6 6.4 16l6.4 96c-70.4-60.8-147.2-128-243.2-160v0zM259.2 326.4c-6.4 9.6-22.4 9.6-32 3.2l-220.8-156.8c-9.6-6.4-9.6-22.4-3.2-32 3.2-6.4 9.6-9.6 16-9.6 3.2 0 9.6 3.2 12.8 3.2l224 163.2c6.4 6.4 9.6 22.4 3.2 28.8zM361.6 192l-156.8-220.8c-9.6-9.6-3.2-22.4 3.2-32 6.4 0 9.6-3.2 12.8-3.2 6.4 0 12.8 3.2 16 9.6l156.8 220.8c9.6 9.6 3.2 22.4-3.2 32-9.6 6.4-22.4 0-28.8-6.4zM323.2 259.2c-9.6 9.6-22.4 9.6-32 0l-192-195.2c-9.6-9.6-9.6-22.4 0-32 3.2-3.2 9.6-6.4 16-6.4s9.6 3.2 16 6.4l195.2 195.2c6.4 12.8 6.4 25.6-3.2 32z" />
<glyph unicode="&#xeb4e;" glyph-name="rest" data-tags="rest" d="M128 256c70.4 0 128 57.6 128 128s-57.6 128-128 128-128-57.6-128-128 57.6-128 128-128zM896 512h-448c-70.4 0-128-57.6-128-128v-128h704v128c0 70.4-57.6 128-128 128zM0 0h1024v192h-1024v-192zM384 640h-96l96 128v64h-192v-64h96l-96-128v-64h192v64zM704 768h-96l96 128v64h-192v-64h96l-96-128v-64h192v64z" />
<glyph unicode="&#xeb4f;" glyph-name="leaf" data-tags="leaf" d="M1011.2 825.6c-112 83.2-281.6 134.4-457.6 134.4-214.4 0-390.4-76.8-483.2-208-41.6-60.8-67.2-134.4-70.4-217.6-3.2-73.6 9.6-153.6 35.2-243.2 96 284.8 361.6 508.8 668.8 508.8 0 0-313.6-67.2-467.2-307.2 0 0-3.2-3.2-6.4-9.6-35.2-48-67.2-102.4-89.6-166.4-41.6-92.8-76.8-224-76.8-380.8h128c0 0-19.2 121.6 12.8 262.4 54.4-6.4 105.6-12.8 150.4-12.8 118.4 0 179.2 41.6 240 96 54.4 48 96 121.6 128 192 48 105.6 121.6 204.8 284.8 297.6 9.6 6.4 16 16 16 25.6 0 12.8-6.4 22.4-12.8 28.8v0z" />
<glyph unicode="&#xeb50;" glyph-name="fire" data-tags="fire" d="M691.2 662.4c-236.8 150.4-128 297.6-128 297.6-230.4-128-281.6-320-224-566.4-83.2 64-96 140.8-92.8 240-105.6-108.8-124.8-224-118.4-348.8 9.6-195.2 185.6-352 390.4-348.8 198.4 3.2 368 160 377.6 355.2 6.4 163.2-64 281.6-204.8 371.2zM521.6 51.2c-35.2 0-70.4 6.4-102.4 19.2-41.6 16-76.8 41.6-105.6 70.4 0 0 3.2 0 3.2 0 118.4 12.8 214.4 102.4 240 214.4 3.2-16 6.4-35.2 6.4-51.2 0-48-12.8-96-38.4-134.4 83.2 44.8 140.8 134.4 140.8 233.6 0 67.2-25.6 128-67.2 176 118.4-32 204.8-134.4 204.8-259.2-3.2-147.2-128-268.8-281.6-268.8z" />
<glyph unicode="&#xeb51;" glyph-name="gender" data-tags="gender" d="M256 864c0-54.4-41.6-96-96-96s-96 41.6-96 96c0 54.4 41.6 96 96 96s96-41.6 96-96zM832 864c0-54.4-41.6-96-96-96s-96 41.6-96 96c0 54.4 41.6 96 96 96s96-41.6 96-96zM256 704h-192c-35.2 0-64-28.8-64-64v-320h64v-384h80v384h32v-384h80v384h64v320c0 35.2-28.8 64-64 64zM976 448l48 35.2-134.4 204.8c-6.4 9.6-16 16-25.6 16h-256c-9.6 0-19.2-6.4-25.6-12.8l-134.4-208 48-35.2 112 144 38.4-89.6-134.4-246.4h121.6l22.4-320h64v320h32v-320h64l22.4 320h121.6l-134.4 246.4 38.4 89.6 112-144z" />
<glyph unicode="&#xeb52;" glyph-name="man" data-tags="man" d="M576 864c0-54.4-41.6-96-96-96s-96 41.6-96 96c0 54.4 41.6 96 96 96s96-41.6 96-96zM576 704h-192c-35.2 0-64-28.8-64-64v-320h64v-384h80v384h32v-384h80v384h64v320c0 35.2-28.8 64-64 64z" />
<glyph unicode="&#xeb53;" glyph-name="woman" data-tags="woman" d="M576 864c0-54.4-41.6-96-96-96s-96 41.6-96 96c0 54.4 41.6 96 96 96s96-41.6 96-96zM720 448l48 35.2-134.4 204.8c-6.4 9.6-16 16-25.6 16h-256c-9.6 0-19.2-6.4-25.6-12.8l-134.4-208 48-35.2 112 144 38.4-89.6-134.4-246.4h121.6l22.4-320h64v320h32v-320h64l22.4 320h121.6l-134.4 246.4 38.4 89.6 112-144z" />
<glyph unicode="&#xeb54;" glyph-name="thumb" data-tags="thumb" d="M521.6 480l60.8 208c6.4 25.6-12.8 48-41.6 48h-179.2l35.2 172.8c3.2 22.4-12.8 48-38.4 48-12.8 0-28.8-3.2-35.2-12.8l-163.2-198.4v-297.6h320c19.2 0 35.2 12.8 41.6 32zM0 448h128v288h-128v-288zM512 416l-60.8-208c-6.4-28.8 12.8-48 41.6-48h179.2l-35.2-172.8c-3.2-22.4 12.8-48 38.4-48 12.8 0 22.4 3.2 32 12.8l160 198.4v297.6h-313.6c-22.4 0-38.4-12.8-41.6-32zM896 448v-288h128v288h-128z" />
<glyph unicode="&#xeb55;" glyph-name="thumb-up" data-tags="thumb-up" d="M873.6 512h-265.6l51.2 252.8c6.4 35.2-19.2 67.2-57.6 67.2-16 0-32-6.4-44.8-22.4l-236.8-297.6v-448h464c28.8 0 54.4 19.2 60.8 48l92.8 320c9.6 38.4-19.2 80-64 80zM64 64h192v448h-192v-448z" />
<glyph unicode="&#xeb56;" glyph-name="thumb-down" data-tags="thumb-down" d="M937.6 464l-92.8 320c-6.4 28.8-32 48-60.8 48h-464v-448l240-297.6c9.6-12.8 25.6-22.4 44.8-22.4 35.2 0 60.8 32 54.4 67.2l-51.2 252.8h265.6c44.8 0 73.6 41.6 64 80zM64 384h192v448h-192v-448z" />
<glyph unicode="&#xeb57;" glyph-name="smile" data-tags="smile" d="M512-64c281.6 0 512 230.4 512 512s-230.4 512-512 512-512-230.4-512-512 230.4-512 512-512zM512 864c230.4 0 416-185.6 416-416s-185.6-416-416-416-416 185.6-416 416 185.6 416 416 416zM256 576c0 35.2 28.8 64 64 64s64-28.8 64-64-28.8-64-64-64-64 28.8-64 64zM640 576c0 35.2 28.8 64 64 64s64-28.8 64-64-28.8-64-64-64-64 28.8-64 64zM704 332.8l83.2-48c-57.6-96-160-156.8-275.2-156.8s-217.6 60.8-275.2 156.8l83.2 48c38.4-64 112-108.8 192-108.8s153.6 44.8 192 108.8z" />
<glyph unicode="&#xeb58;" glyph-name="sad" data-tags="sad" d="M512-64c281.6 0 512 230.4 512 512s-230.4 512-512 512-512-230.4-512-512 230.4-512 512-512zM512 864c230.4 0 416-185.6 416-416s-185.6-416-416-416-416 185.6-416 416 185.6 416 416 416zM256 576c0 35.2 28.8 64 64 64s64-28.8 64-64-28.8-64-64-64-64 28.8-64 64zM640 576c0 35.2 28.8 64 64 64s64-28.8 64-64-28.8-64-64-64-64 28.8-64 64zM320 179.2l-83.2 48c57.6 96 160 156.8 275.2 156.8s217.6-60.8 275.2-156.8l-83.2-48c-38.4 64-112 108.8-192 108.8s-153.6-44.8-192-108.8v0z" />
<glyph unicode="&#xeb59;" glyph-name="money-rmb" data-tags="money-rmb" d="M665.6 576h230.4v-128h-320v-128h320v-128h-320v-192h-128v192h-320v128h320v128h-320v128h230.4l-230.4 230.4 89.6 89.6 294.4-294.4 294.4 294.4 89.6-89.6-230.4-230.4z" />
<glyph unicode="&#xeb5a;" glyph-name="money-rmb-ico" data-tags="money-rmb-ico" d="M0 832v-768h1024v768h-1024zM576 448v-64h128v-64h-128v-128h-128v128h-128v64h128v64h-128v64h64v128h64v-128h128v128h64v-128h64v-64h-128z" />
<glyph unicode="&#xeb5b;" glyph-name="money-us" data-tags="money-us" d="M896 640v128h-320v128h-128v-128h-320v-384h320v-128h-320v-128h320v-128h128v128h320v384h-320v128h320zM768 384v-128h-192v128h192zM448 512h-192v128h192v-128z" />
<glyph unicode="&#xeb5c;" glyph-name="money-us-ico" data-tags="money-us-ico" d="M576 320h128v64h-128v-64zM320 448h128v64h-128v-64zM0 832v-768h1024v768h-1024zM768 512h-192v-64h192v-192h-192v-64h-128v64h-192v64h192v64h-192v192h192v64h128v-64h192v-64z" />
<glyph unicode="&#xeb5d;" glyph-name="wallet" data-tags="wallet" d="M256 320h-192c-35.2 0-64 28.8-64 64v128c0 35.2 28.8 64 64 64h192c35.2 0 64-28.8 64-64v-128c0-35.2-28.8-64-64-64zM256 448v0c0 35.2-28.8 64-64 64v0c-35.2 0-64-28.8-64-64v0c0-35.2 28.8-64 64-64v0c35.2 0 64 28.8 64 64zM64 960v-320h320v-384h-320v-320h896v1024h-896z" />
<glyph unicode="&#xeb5e;" glyph-name="bank-card" data-tags="bank-card" d="M0 832v-768h1024v768h-1024zM960 128h-896v384h896v-384zM960 640h-896v128h896v-128zM256 352h-128v-128h128v128zM448 352h-128v-128h128v128zM640 352h-128v-128h128v128z" />
<glyph unicode="&#xec00;" glyph-name="play-prev" data-tags="play-prev" d="M896 960v-1024l-576 512 576 512zM128-64h192v1024h-192v-1024z" />
<glyph unicode="&#xec01;" glyph-name="play-backoff" data-tags="play-backoff" d="M1024-64l-448 396.8v-396.8l-576 512 576 512v-396.8l448 396.8v-1024z" />
<glyph unicode="&#xec02;" glyph-name="play-forward" data-tags="play-forward" d="M0 960l448-396.8v396.8l576-512-576-512v396.8l-448-396.8v1024z" />
<glyph unicode="&#xec03;" glyph-name="play-next" data-tags="play-next" d="M704 448l-576-512v1024l576-512zM896 960h-192v-1024h192v1024z" />
<glyph unicode="&#xec04;" glyph-name="play-loop" data-tags="play-loop" d="M128 640h640v-192l256 256-256 256v-192h-768v-384h128v256zM896 256h-640v192l-256-256 256-256v192h768v384h-128v-256z" />
<glyph unicode="&#xec05;" glyph-name="play-random" data-tags="play-random" d="M768 384l256-192-256-192v128h-182.4l-198.4 195.2-195.2-195.2h-192v128h128l163.2 160-163.2 160h-128v128h192l195.2-195.2 198.4 195.2h182.4v128l256-192-256-192v128h-128l-160-160 160-160h128v128z" />
<glyph unicode="&#xec06;" glyph-name="loading" data-tags="loading" d="M1024 576h-384l128 144c-73.6 73.6-153.6 112-256 112s-198.4-38.4-272-112-112-169.6-112-272 38.4-198.4 112-272 169.6-112 272-112 198.4 38.4 272 112c6.4 6.4 12.8 12.8 16 19.2l96-99.2c-92.8-105.6-230.4-160-384-160-281.6 0-512 230.4-512 512s230.4 512 512 512c140.8 0 268.8-57.6 361.6-150.4l150.4 150.4v-384z" />
<glyph unicode="&#xec07;" glyph-name="play" data-tags="play" d="M512 960c-281.6 0-512-230.4-512-512s230.4-512 512-512 512 230.4 512 512-230.4 512-512 512zM384 192v512l320-256-320-256z" />
<glyph unicode="&#xec08;" glyph-name="pause" data-tags="pause" d="M512 960c-281.6 0-512-230.4-512-512s230.4-512 512-512 512 230.4 512 512-230.4 512-512 512zM320 640h128v-384h-128v384zM576 640h128v-384h-128v384z" />
<glyph unicode="&#xec09;" glyph-name="stop" data-tags="stop" d="M512 960c-281.6 0-512-230.4-512-512s230.4-512 512-512 512 230.4 512 512-230.4 512-512 512zM320 640h384v-384h-384v384z" />
<glyph unicode="&#xec0a;" glyph-name="volume" data-tags="volume" d="M0 640v-384h128l320-320v1024l-320-320h-128z" />
<glyph unicode="&#xec0b;" glyph-name="volume-small" data-tags="volume-small" d="M0 640v-384h128l320-320v1024l-320-320h-128zM550.4 640l-38.4-54.4c35.2-35.2 57.6-83.2 57.6-137.6s-22.4-102.4-57.6-137.6l35.2-54.4c54.4 48 86.4 115.2 86.4 192 3.2 76.8-32 144-83.2 192z" />
<glyph unicode="&#xec0c;" glyph-name="volume-medium" data-tags="volume-medium" d="M0 640v-384h128l320-320v1024l-320-320h-128zM550.4 640l-38.4-54.4c35.2-35.2 57.6-83.2 57.6-137.6s-22.4-102.4-57.6-137.6l35.2-54.4c54.4 48 86.4 115.2 86.4 192 3.2 76.8-32 144-83.2 192zM656 800l-35.2-54.4c86.4-70.4 144-176 144-297.6s-57.6-227.2-144-297.6l35.2-54.4c105.6 83.2 172.8 208 172.8 352s-67.2 268.8-172.8 352z" />
<glyph unicode="&#xec0d;" glyph-name="volume-big" data-tags="volume-big" d="M0 640v-128l-64-64 64-64v-128h128l320-320v1024l-320-320h-128zM550.4 640l-38.4-54.4c35.2-35.2 57.6-83.2 57.6-137.6s-22.4-102.4-57.6-137.6l35.2-54.4c54.4 48 86.4 115.2 86.4 192 3.2 76.8-32 144-83.2 192zM656 800l-35.2-54.4c86.4-70.4 144-176 144-297.6s-57.6-227.2-144-297.6l35.2-54.4c105.6 83.2 172.8 208 172.8 352s-67.2 268.8-172.8 352zM764.8 960l-35.2-54.4c137.6-105.6 230.4-272 230.4-457.6s-89.6-352-230.4-457.6l35.2-54.4c156.8 118.4 259.2 304 259.2 512 0 211.2-102.4 393.6-259.2 512z" />
<glyph unicode="&#xec0e;" glyph-name="microphone" data-tags="microphone" d="M512 256v0c-105.6 0-192 86.4-192 192v320c0 105.6 86.4 192 192 192v0c105.6 0 192-86.4 192-192v-320c0-105.6-86.4-192-192-192zM576 150.4h-128v-182.4h128v182.4zM704 0h-384v-64h384v64zM512 182.4c-147.2 0-265.6 118.4-265.6 265.6h-54.4c0-176 144-320 320-320s320 144 320 320h-54.4c0-147.2-118.4-265.6-265.6-265.6z" />
<glyph unicode="&#xec0f;" glyph-name="microphone-remove" data-tags="microphone-remove" d="M832 448h-54.4c0-22.4-3.2-44.8-9.6-64l44.8-44.8c12.8 35.2 19.2 70.4 19.2 108.8zM704 192l160-160 64 64-768 768-64-64 224-224v-128c0-105.6 86.4-192 192-192 35.2 0 70.4 9.6 99.2 28.8l54.4-54.4c-44.8-28.8-96-48-153.6-48-147.2 0-265.6 118.4-265.6 265.6h-54.4c0-153.6 108.8-284.8 256-313.6v-134.4h-128v-64h384v64h-128v134.4c48 9.6 89.6 28.8 128 57.6zM704 768c0 105.6-86.4 192-192 192-86.4 0-160-57.6-182.4-137.6l374.4-374.4v320z" />
<glyph unicode="&#xec10;" glyph-name="preview" data-tags="preview" d="M512 768c-224 0-416-131.2-512-320 96-188.8 288-320 512-320s416 131.2 512 320c-96 188.8-288 320-512 320zM764.8 598.4c60.8-38.4 112-89.6 150.4-150.4-38.4-60.8-89.6-112-150.4-150.4-76.8-48-163.2-73.6-252.8-73.6s-176 25.6-252.8 73.6c-60.8 38.4-112 89.6-150.4 150.4 38.4 60.8 89.6 112 150.4 150.4 3.2 3.2 6.4 6.4 12.8 6.4-9.6-25.6-16-57.6-16-86.4 0-140.8 115.2-256 256-256s256 115.2 256 256c0 32-6.4 60.8-16 86.4 3.2 0 9.6-3.2 12.8-6.4v0 0zM512 544c0-54.4-41.6-96-96-96s-96 41.6-96 96 41.6 96 96 96 96-41.6 96-96z" />
<glyph unicode="&#xec11;" glyph-name="preview-remove" data-tags="preview-remove" d="M96 800l118.4-118.4c-92.8-54.4-166.4-137.6-214.4-233.6 96-188.8 288-320 512-320 76.8 0 147.2 16 214.4 41.6l137.6-137.6 64 64-768 768-64-64zM323.2 572.8l118.4-118.4c-6.4-3.2-16-6.4-25.6-6.4-54.4 0-96 41.6-96 96 0 9.6 3.2 19.2 3.2 28.8zM272 604.8c-9.6-25.6-16-57.6-16-86.4 0-140.8 115.2-256 256-256 35.2 0 70.4 6.4 102.4 22.4l38.4-38.4c-48-16-92.8-22.4-140.8-22.4-89.6 0-176 25.6-252.8 73.6-60.8 38.4-112 89.6-150.4 150.4 38.4 60.8 89.6 112 150.4 150.4 3.2 3.2 9.6 6.4 12.8 6.4zM768 518.4c0 32-6.4 60.8-16 86.4 3.2-3.2 6.4-6.4 12.8-6.4 60.8-38.4 112-89.6 150.4-150.4-32-48-70.4-92.8-115.2-124.8l67.2-67.2c64 51.2 118.4 118.4 156.8 195.2-96 188.8-288 320-512 320-48 0-96-6.4-140.8-19.2l361.6-361.6c22.4 35.2 35.2 80 35.2 128z" />
<glyph unicode="&#xed00;" glyph-name="sequence" data-tags="sequence" d="M256 704h128v-384h-128v384zM320 896l-192-192h384l-192 192zM768 192h-128v384h128v-384zM704 0l192 192h-384l192-192z" />
<glyph unicode="&#xed01;" glyph-name="sequence-up" data-tags="sequence-up" d="M448 704h128v-704h-128v704zM512 896l-192-192h384l-192 192z" />
<glyph unicode="&#xed02;" glyph-name="sequence-down" data-tags="sequence-down" d="M576 192h-128v704h128v-704zM512 0l192 192h-384l192-192z" />
<glyph unicode="&#xed03;" glyph-name="align-top" data-tags="align-top" d="M64 896h896v-128h-896v128zM448 512h128v-512h-128v512zM512 704l-192-192h384l-192 192z" />
<glyph unicode="&#xed04;" glyph-name="align-bottom" data-tags="align-bottom" d="M960 0h-896v128h896v-128zM576 384h-128v512h128v-512zM512 192l192 192h-384l192-192z" />
<glyph unicode="&#xed05;" glyph-name="align-center" data-tags="align-center" d="M64 512h896v-128h-896v128zM448 896h128v-128h-128v128zM512 576l192 192h-384l192-192zM448 128h128v-128h-128v128zM512 320l-192-192h384l-192 192z" />
<glyph unicode="&#xed06;" glyph-name="merge" data-tags="merge" d="M665.6 272l-89.6-89.6 182.4-182.4 89.6 89.6-182.4 182.4zM576 704h128l-192 192-192-192h128v-355.2l-268.8-265.6 89.6-83.2 307.2 320v384z" />
<glyph unicode="&#xed07;" glyph-name="branch" data-tags="branch" d="M707.2 896l80-80-211.2-211.2 89.6-89.6 211.2 211.2 83.2-86.4v256h-252.8zM320 896h-256v-252.8l83.2 83.2 300.8-300.8v-425.6h128v480l-336 336 80 80z" />
<glyph unicode="&#xed08;" glyph-name="trending-up" data-tags="trending-up" d="M960 512l-80 80-320-320-134.4 134.4-272-272-89.6 92.8 361.6 361.6 134.4-134.4 230.4 230.4-86.4 83.2h256v-256z" />
<glyph unicode="&#xed09;" glyph-name="trending-down" data-tags="trending-down" d="M960 390.4v-262.4h-256l86.4 89.6-230.4 233.6-134.4-134.4-361.6 361.6 89.6 89.6 272-272 134.4 134.4 320-320 80 80z" />
<glyph unicode="&#xed0a;" glyph-name="bluetooth" data-tags="bluetooth" d="M675.2 227.2l-96 99.2v-195.2l96 96zM579.2 764.8v-195.2l96 99.2-96 96zM822.4 668.8l-220.8-220.8 220.8-220.8-291.2-291.2h-51.2v390.4l-236.8-236.8-73.6 73.6 284.8 284.8-281.6 284.8 73.6 73.6 236.8-236.8v390.4h51.2l288-291.2z" />
<glyph unicode="&#xed0b;" glyph-name="bluetooth-remove" data-tags="bluetooth-remove" d="M579.2 131.2l96 96-96 99.2v-195.2zM192 857.6l748.8-748.8-73.6-73.6-118.4 118.4-217.6-217.6h-51.2v390.4l-236.8-236.8-73.6 73.6 284.8 284.8-336 339.2 73.6 70.4zM579.2 764.8v-166.4l-99.2 105.6v256h51.2l294.4-291.2-160-156.8-73.6 73.6 83.2 83.2-96 96z" />
<glyph unicode="&#xed0c;" glyph-name="bluetooth-connected" data-tags="bluetooth-connected" d="M886.4 550.4l105.6-102.4-102.4-102.4-102.4 102.4 99.2 102.4zM675.2 227.2l-96 99.2v-195.2l96 96zM579.2 764.8v-195.2l96 99.2-96 96zM822.4 668.8l-220.8-220.8 220.8-220.8-294.4-291.2h-48v390.4l-236.8-236.8-73.6 73.6 284.8 284.8-281.6 284.8 73.6 73.6 236.8-236.8v390.4h51.2l288-291.2zM272 448l-102.4-102.4-102.4 102.4 102.4 102.4 102.4-102.4z" />
<glyph unicode="&#xed0d;" glyph-name="bluetooth-searching" data-tags="bluetooth-searching" d="M550.4 227.2l-96 99.2v-195.2l96 96zM454.4 764.8v-195.2l96 99.2-96 96zM694.4 668.8l-220.8-220.8 220.8-220.8-294.4-291.2h-48v390.4l-236.8-236.8-73.6 73.6 284.8 284.8-281.6 284.8 73.6 73.6 236.8-236.8v390.4h51.2l288-291.2zM892.8 720c51.2-80 73.6-169.6 73.6-265.6s-25.6-188.8-80-272l-60.8 60.8c35.2 67.2 51.2 137.6 51.2 208s-16 140.8-51.2 208l67.2 60.8zM620.8 448l118.4 118.4c16-41.6 25.6-80 25.6-118.4 0-41.6-9.6-80-25.6-121.6l-118.4 121.6z" />
<glyph unicode="&#xed0e;" glyph-name="wifi-min" data-tags="wifi-min" d="M633.6 214.4c-67.2 67.2-172.8 67.2-240 0l-86.4 86.4c112 112 294.4 112 406.4 0l-80-86.4zM512 128c35.2 0 64-28.8 64-64s-28.8-64-64-64-64 28.8-64 64 28.8 64 64 64z" />
<glyph unicode="&#xed0f;" glyph-name="wifi-searching" data-tags="wifi-searching" d="M633.6 214.4c-67.2 67.2-172.8 67.2-240 0l-86.4 86.4c112 112 294.4 112 406.4 0l-80-86.4zM512 128c35.2 0 64-28.8 64-64s-28.8-64-64-64-64 28.8-64 64 28.8 64 64 64zM256 419.2l-86.4 86.4c188.8 188.8 496 188.8 681.6 0l-83.2-86.4c-140.8 144-371.2 144-512 0z" />
<glyph unicode="&#xed10;" glyph-name="wifi-max" data-tags="wifi-max" d="M86.4 601.6l-86.4 83.2c137.6 134.4 316.8 211.2 512 211.2s374.4-76.8 512-211.2l-86.4-86.4c-112 115.2-265.6 176-425.6 176s-313.6-60.8-425.6-172.8zM633.6 214.4c-67.2 67.2-172.8 67.2-240 0l-86.4 86.4c112 112 294.4 112 406.4 0l-80-86.4zM512 128c35.2 0 64-28.8 64-64s-28.8-64-64-64-64 28.8-64 64 28.8 64 64 64zM256 419.2l-86.4 86.4c188.8 188.8 496 188.8 681.6 0l-83.2-86.4c-140.8 144-371.2 144-512 0z" />
<glyph unicode="&#xed11;" glyph-name="bookmark" data-tags="bookmark" d="M192 960v-1024l320 320 320-320v1024h-640z" />
<glyph unicode="&#xed12;" glyph-name="label" data-tags="label" d="M0 128h1024l-320 320 320 320h-1024v-640z" />
<glyph unicode="&#xed13;" glyph-name="bookmark-group" data-tags="bookmark-group" d="M128 832v-896l320 320 320-320v896h-640zM256 896h576v-768l64-64v896h-640v-64z" />
<glyph unicode="&#xed14;" glyph-name="tags" data-tags="tags" d="M704 832l-448-448 320-320 448 448v320h-320zM448 832l-448-448 320-320 64 64-256 256 448 448h-128zM896 608c0-51.2-44.8-96-96-96s-96 44.8-96 96 44.8 96 96 96 96-44.8 96-96z" />
<glyph unicode="&#xed15;" glyph-name="plus" data-tags="plus" d="M960 320h-896v256h896v-256zM384 0v896h256v-896h-256z" />
<glyph unicode="&#xed16;" glyph-name="minus" data-tags="minus" d="M960 320h-896v256h896v-256z" />
<glyph unicode="&#xed17;" glyph-name="ok" data-tags="ok" d="M364.8 32l-67.2 64-80 80-217.6 220.8 147.2 144 220.8-217.6 508.8 508.8 147.2-144-659.2-656z" />
<glyph unicode="&#xed18;" glyph-name="cancel" data-tags="cancel" d="M793.6 896l-281.6-281.6-278.4 281.6-169.6-169.6 281.6-281.6-281.6-278.4 169.6-166.4 281.6 281.6 281.6-281.6 169.6 169.6-284.8 278.4 278.4 278.4-166.4 169.6z" />
<glyph unicode="&#xed19;" glyph-name="info" data-tags="info" d="M640 0v512h-256v-512h256zM384 896v-256h256v256h-256zM320 512v-128h64v128h-64zM320 128v-128h64v128h-64zM640 128v-128h64v128h-64z" />
<glyph unicode="&#xed1a;" glyph-name="warning" data-tags="warning" d="M384 896v-512h256v512h-256zM640 0v256h-256v-256h256z" />
<glyph unicode="&#xed1b;" glyph-name="question" data-tags="question" d="M608-64h-192v192h192v-192zM512 960c-176 0-320-128-320-320h192c0 64 57.6 128 128 128s128-57.6 128-128-57.6-128-128-128v-192c176 0 320 144 320 320s-144 320-320 320zM608 512h-192v-320h192v320z" />
<glyph unicode="&#xed1c;" glyph-name="hollow-plus" data-tags="hollow-plus" d="M1024 448c0-281.6-230.4-512-512-512s-512 230.4-512 512 230.4 512 512 512 512-230.4 512-512zM512 832c-211.2 0-384-172.8-384-384s172.8-384 384-384 384 172.8 384 384-172.8 384-384 384zM768 512h-512v-128h512v128zM576 192v512h-128v-512h128z" />
<glyph unicode="&#xed1d;" glyph-name="hollow-minus" data-tags="hollow-minus" d="M1024 448c0-281.6-230.4-512-512-512s-512 230.4-512 512 230.4 512 512 512 512-230.4 512-512zM512 832c-211.2 0-384-172.8-384-384s172.8-384 384-384 384 172.8 384 384-172.8 384-384 384zM768 512h-512v-128h512v128z" />
<glyph unicode="&#xed1e;" glyph-name="hollow-ok" data-tags="hollow-ok" d="M1024 448c0-281.6-230.4-512-512-512s-512 230.4-512 512 230.4 512 512 512 512-230.4 512-512zM512 832c-211.2 0-384-172.8-384-384s172.8-384 384-384 384 172.8 384 384-172.8 384-384 384zM825.6 582.4l-406.4-409.6-227.2 227.2 89.6 89.6 134.4-134.4 320 316.8 89.6-89.6z" />
<glyph unicode="&#xed1f;" glyph-name="hollow-cancel" data-tags="hollow-cancel" d="M1024 448c0-281.6-230.4-512-512-512s-512 230.4-512 512 230.4 512 512 512 512-230.4 512-512zM512 832c-211.2 0-384-172.8-384-384s172.8-384 384-384 384 172.8 384 384-172.8 384-384 384zM672 704l-160-160-160 160-96-96 160-160-160-160 96-96 160 160 160-160 96 96-160 160 160 160-96 96z" />
<glyph unicode="&#xed20;" glyph-name="hollow-info" data-tags="hollow-info" d="M1024 448c0-281.6-230.4-512-512-512s-512 230.4-512 512 230.4 512 512 512 512-230.4 512-512zM512 832c-211.2 0-384-172.8-384-384s172.8-384 384-384 384 172.8 384 384-172.8 384-384 384zM576 192v320h-128v-320h128zM448 704v-128h128v128h-128zM384 512v-64h64v64h-64zM384 256v-64h64v64h-64zM576 256v-64h64v64h-64z" />
<glyph unicode="&#xed21;" glyph-name="hollow-warning" data-tags="hollow-warning" d="M1024 448c0-281.6-230.4-512-512-512s-512 230.4-512 512 230.4 512 512 512 512-230.4 512-512zM512 832c-211.2 0-384-172.8-384-384s172.8-384 384-384 384 172.8 384 384-172.8 384-384 384zM448 704v-320h128v320h-128zM576 192v128h-128v-128h128z" />
<glyph unicode="&#xed22;" glyph-name="hollow-question" data-tags="hollow-question" d="M1024 448c0-281.6-230.4-512-512-512s-512 230.4-512 512 230.4 512 512 512 512-230.4 512-512zM512 832c-211.2 0-384-172.8-384-384s172.8-384 384-384 384 172.8 384 384-172.8 384-384 384zM448 128h128v128h-128v-128zM512 768c-105.6 0-192-86.4-192-192h128c0 35.2 28.8 64 64 64s64-28.8 64-64-28.8-64-64-64h-64v-192h128v76.8c73.6 25.6 128 96 128 179.2 0 105.6-86.4 192-192 192z" />
<glyph unicode="&#xed23;" glyph-name="solid-plus" data-tags="solid-plus" d="M1024 448c0-281.6-230.4-512-512-512s-512 230.4-512 512 230.4 512 512 512 512-230.4 512-512zM768 512h-192v192h-128v-192h-192v-128h192v-192h128v192h192v128z" />
<glyph unicode="&#xed24;" glyph-name="solid-minus" data-tags="solid-minus" d="M1024 448c0-281.6-230.4-512-512-512s-512 230.4-512 512 230.4 512 512 512 512-230.4 512-512zM768 512h-512v-128h512v128z" />
<glyph unicode="&#xed25;" glyph-name="solid-ok" data-tags="solid-ok" d="M512 960c-281.6 0-512-230.4-512-512s230.4-512 512-512 512 230.4 512 512-230.4 512-512 512zM419.2 172.8l-227.2 227.2 89.6 89.6 134.4-134.4 320 316.8 89.6-89.6-406.4-409.6z" />
<glyph unicode="&#xed26;" glyph-name="solid-cancel" data-tags="solid-cancel" d="M1024 448c0-281.6-230.4-512-512-512s-512 230.4-512 512 230.4 512 512 512 512-230.4 512-512zM672 704l-160-160-160 160-96-96 160-160-160-160 96-96 160 160 160-160 96 96-160 160 160 160-96 96z" />
<glyph unicode="&#xed27;" glyph-name="solid-info" data-tags="solid-info" d="M1024 448c0-281.6-230.4-512-512-512s-512 230.4-512 512 230.4 512 512 512 512-230.4 512-512zM576 192v320h-128v-320h128zM448 704v-128h128v128h-128zM384 512v-64h64v64h-64zM384 256v-64h64v64h-64zM576 256v-64h64v64h-64z" />
<glyph unicode="&#xed28;" glyph-name="solid-warning" data-tags="solid-warning" d="M1024 448c0-281.6-230.4-512-512-512s-512 230.4-512 512 230.4 512 512 512 512-230.4 512-512zM448 704v-320h128v320h-128zM576 192v128h-128v-128h128z" />
<glyph unicode="&#xed29;" glyph-name="solid-question" data-tags="solid-question" d="M1024 448c0-281.6-230.4-512-512-512s-512 230.4-512 512 230.4 512 512 512 512-230.4 512-512zM448 128h128v128h-128v-128zM512 768c-105.6 0-192-86.4-192-192h128c0 35.2 28.8 64 64 64s64-28.8 64-64-28.8-64-64-64h-64v-192h128v76.8c73.6 25.6 128 96 128 179.2 0 105.6-86.4 192-192 192z" />
<glyph unicode="&#xed2a;" glyph-name="hollow-clock" data-tags="hollow-clock" d="M659.2 211.2l-211.2 211.2v281.6h128v-230.4l172.8-172.8-89.6-89.6zM512 960c-281.6 0-512-230.4-512-512s230.4-512 512-512 512 230.4 512 512-230.4 512-512 512zM512 64c-211.2 0-384 172.8-384 384s172.8 384 384 384 384-172.8 384-384-172.8-384-384-384z" />
<glyph unicode="&#xed2b;" glyph-name="solid-clock" data-tags="solid-clock" d="M512 960c-281.6 0-512-230.4-512-512s230.4-512 512-512 512 230.4 512 512-230.4 512-512 512zM659.2 211.2l-211.2 211.2v281.6h128v-230.4l172.8-172.8-89.6-89.6z" />
<glyph unicode="&#xed2c;" glyph-name="search" data-tags="search" d="M992 89.6l-243.2 204.8c-25.6 22.4-51.2 32-73.6 32 57.6 67.2 92.8 153.6 92.8 249.6 0 211.2-172.8 384-384 384s-384-172.8-384-384 172.8-384 384-384c96 0 182.4 35.2 249.6 92.8 0-22.4 9.6-48 32-73.6l204.8-243.2c35.2-38.4 92.8-41.6 128-6.4s32 92.8-6.4 128v0zM384 320c-140.8 0-256 115.2-256 256s115.2 256 256 256 256-115.2 256-256-115.2-256-256-256z" />
<glyph unicode="&#xed2d;" glyph-name="zoom-in" data-tags="zoom-in" d="M992 89.6l-243.2 204.8c-25.6 22.4-51.2 32-73.6 32 57.6 67.2 92.8 153.6 92.8 249.6 0 211.2-172.8 384-384 384s-384-172.8-384-384 172.8-384 384-384c96 0 182.4 35.2 249.6 92.8 0-22.4 9.6-48 32-73.6l204.8-243.2c35.2-38.4 92.8-41.6 128-6.4s32 92.8-6.4 128v0zM384 320c-140.8 0-256 115.2-256 256s115.2 256 256 256 256-115.2 256-256-115.2-256-256-256zM448 768h-128v-128h-128v-128h128v-128h128v128h128v128h-128v128z" />
<glyph unicode="&#xed2e;" glyph-name="zoom-out" data-tags="zoom-out" d="M992 89.6l-243.2 204.8c-25.6 22.4-51.2 32-73.6 32 57.6 67.2 92.8 153.6 92.8 249.6 0 211.2-172.8 384-384 384s-384-172.8-384-384 172.8-384 384-384c96 0 182.4 35.2 249.6 92.8 0-22.4 9.6-48 32-73.6l204.8-243.2c35.2-38.4 92.8-41.6 128-6.4s32 92.8-6.4 128v0zM384 320c-140.8 0-256 115.2-256 256s115.2 256 256 256 256-115.2 256-256-115.2-256-256-256zM192 640h384v-128h-384v128z" />
<glyph unicode="&#xed2f;" glyph-name="cloud" data-tags="cloud" d="M1024 288c0-124.8-99.2-224-224-224h-512c-160 0-288 128-288 288 0 134.4 92.8 246.4 214.4 278.4 48 118.4 163.2 201.6 297.6 201.6 176 0 320-144 320-320 0 0 0-3.2 0-3.2 108.8-16 192-108.8 192-220.8z" />
<glyph unicode="&#xed30;" glyph-name="cloud-up" data-tags="cloud-up" d="M1024 288c0-124.8-99.2-224-224-224h-512c-160 0-288 128-288 288 0 134.4 92.8 246.4 214.4 278.4 48 118.4 163.2 201.6 297.6 201.6 176 0 320-144 320-320 0 0 0-3.2 0-3.2 108.8-16 192-108.8 192-220.8zM512 512l-256-256h512l-256 256zM448 64h128v192h-128v-192z" />
<glyph unicode="&#xed31;" glyph-name="cloud-download" data-tags="cloud-download" d="M1024 288c0-124.8-99.2-224-224-224h-512c-160 0-288 128-288 288 0 134.4 92.8 246.4 214.4 278.4 48 118.4 163.2 201.6 297.6 201.6 176 0 320-144 320-320 0 0 0-3.2 0-3.2 108.8-16 192-108.8 192-220.8zM512 128l256 256h-512l256-256zM576 576h-128v-192h128v192z" />
<glyph unicode="&#xed32;" glyph-name="cloud-remove" data-tags="cloud-remove" d="M1024 288c0-124.8-99.2-224-224-224h-512c-160 0-288 128-288 288 0 134.4 92.8 246.4 214.4 278.4 48 118.4 163.2 201.6 297.6 201.6 176 0 320-144 320-320 0 0 0-3.2 0-3.2 108.8-16 192-108.8 192-220.8zM736 384h-448v-128h448v128z" />
<glyph unicode="&#xed33;" glyph-name="enter" data-tags="enter" d="M384 448h-320v128h320v128l192-192-192-192v128zM1024 960v-832l-384-192v192h-384v256h64v-192h320v576l256 128h-576v-256h-64v320h768z" />
<glyph unicode="&#xed34;" glyph-name="exit" data-tags="exit" d="M768 320v128h-320v128h320v128l192-192-192-192zM704 384v-256h-320v-192l-384 192v832h704v-320h-64v256h-512l256-128v-576h256v192h64z" />
<glyph unicode="&#xed35;" glyph-name="power" data-tags="power" d="M640 812.8v-134.4c35.2-16 70.4-38.4 99.2-67.2 60.8-60.8 92.8-140.8 92.8-227.2s-32-166.4-92.8-227.2-140.8-92.8-227.2-92.8-166.4 32-227.2 92.8-92.8 140.8-92.8 227.2 32 166.4 92.8 227.2c28.8 28.8 64 51.2 99.2 67.2v134.4c-185.6-54.4-320-227.2-320-428.8 0-246.4 201.6-448 448-448s448 201.6 448 448c0 201.6-134.4 374.4-320 428.8zM448 960h128v-512h-128v512z" />
<glyph unicode="&#xed36;" glyph-name="undo" data-tags="undo" d="M761.6-64c115.2 204.8 134.4 521.6-313.6 508.8v-252.8l-384 384 384 384v-249.6c534.4 16 595.2-470.4 313.6-774.4z" />
<glyph unicode="&#xed37;" glyph-name="redo" data-tags="redo" d="M576 710.4v249.6l384-384-384-384v252.8c-448 12.8-428.8-304-313.6-508.8-281.6 304-220.8 790.4 313.6 774.4z" />
<glyph unicode="&#xed38;" glyph-name="key" data-tags="key" d="M630.4 243.2c38.4 38.4 38.4 105.6 0 144l-182.4 182.4c-38.4 38.4-102.4 38.4-144 0l-176-172.8c-89.6-89.6-89.6-233.6 0-323.2s233.6-89.6 323.2 0l3.2 3.2 176 166.4zM364.8 124.8c-19.2-19.2-48-32-73.6-35.2-35.2-3.2-70.4 9.6-99.2 35.2s-38.4 64-35.2 99.2c3.2 28.8 12.8 54.4 35.2 73.6v0 0c0 0 0 0 3.2 3.2l6.4 6.4 9.6 12.8c12.8 12.8 35.2 12.8 48 0l124.8-124.8c12.8-12.8 12.8-35.2 0-48l-19.2-22.4zM707.2 796.8l-12.8-54.4-54.4-12.8-12.8-51.2-51.2-12.8-80-80 156.8-156.8 80 80 12.8 54.4 51.2 12.8 12.8 54.4 54.4 12.8 12.8 54.4 51.2 9.6c44.8 44.8 41.6 115.2 0 156.8-44.8 44.8-115.2 41.6-156.8 0v0l-12.8-54.4-51.2-12.8z" />
<glyph unicode="&#xed39;" glyph-name="lock" data-tags="lock" d="M784 512h-16v192c0 105.6-86.4 192-192 192h-128c-105.6 0-192-86.4-192-192v-192h-16c-25.6 0-48-22.4-48-48v-480c0-25.6 22.4-48 48-48h544c25.6 0 48 22.4 48 48v480c0 25.6-22.4 48-48 48zM384 704c0 35.2 28.8 64 64 64h128c35.2 0 64-28.8 64-64v-192h-256v192z" />
<glyph unicode="&#xed3a;" glyph-name="unlocked" data-tags="unlocked" d="M832 464v-480c0-25.6-22.4-48-48-48h-544c-25.6 0-48 22.4-48 48v480c0 25.6 22.4 48 48 48h544c25.6 0 48-22.4 48-48zM640 640h128v64c0 105.6-86.4 192-192 192h-128c-105.6 0-192-86.4-192-192v-192h128v192c0 35.2 28.8 64 64 64h128c35.2 0 64-28.8 64-64v-64z" />
<glyph unicode="&#xed3b;" glyph-name="control" data-tags="control" d="M960 320h-256v256h256v-256zM576 448l128-128v256l-128-128zM384 896v-256h256v256h-256zM512 512l128 128h-256l128-128zM64 320h256v256h-256v-256zM448 448l-128 128v-256l128 128zM640 0v256h-256v-256h256zM512 384l-128-128h256l-128 128z" />
<glyph unicode="&#xed3c;" glyph-name="piclist" data-tags="piclist" d="M320 640h-256v256h256v-256zM640 896h-256v-256h256v256zM960 896h-256v-256h256v256zM320 256h-256v-256h256v256zM320 576h-256v-256h256v256zM960 576h-256v-256h256v256zM640 576h-256v-256h256v256zM640 256h-256v-256h256v256zM960 256h-256v-256h256v256z" />
<glyph unicode="&#xed3d;" glyph-name="workers-deck" data-tags="workers-deck" d="M640 64h-640v768h640v-768zM704 64v768h128v-768h-128zM896 832h128v-768h-128v768zM320 640c-54.4 0-96-41.6-96-96s41.6-96 96-96 96 41.6 96 96-41.6 96-96 96zM416 384h-192c-54.4 0-96-41.6-96-96v-96h384v96c0 54.4-41.6 96-96 96z" />
<glyph unicode="&#xed3e;" glyph-name="plugin" data-tags="plugin" d="M768 0h-704v704h704v-704zM416 896c-54.4 0-96-41.6-96-96v-96h192v96c0 54.4-41.6 96-96 96zM960 352c0 54.4-41.6 96-96 96h-96v-192h96c54.4 0 96 41.6 96 96zM416 192c-54.4 0-96-41.6-96-96v-96h192v96c0 54.4-41.6 96-96 96zM256 352c0 54.4-41.6 96-96 96h-96v-192h96c54.4 0 96 41.6 96 96z" />
<glyph unicode="&#xed3f;" glyph-name="setting" data-tags="setting" d="M1017.6 374.4c6.4 51.2 6.4 99.2 0 150.4l-140.8 51.2c-3.2 12.8-9.6 25.6-16 38.4l60.8 137.6c-16 19.2-32 38.4-48 57.6-19.2 19.2-38.4 35.2-57.6 48l-137.6-60.8c-12.8 6.4-25.6 12.8-38.4 16l-54.4 140.8c-51.2 6.4-99.2 6.4-150.4 0l-51.2-140.8c-12.8-3.2-25.6-9.6-38.4-16l-137.6 60.8c-19.2-16-38.4-32-57.6-48s-35.2-35.2-48-57.6l60.8-137.6c-6.4-12.8-12.8-25.6-16-38.4l-140.8-54.4c-6.4-51.2-6.4-99.2 0-150.4l140.8-51.2c3.2-12.8 9.6-25.6 16-38.4l-60.8-137.6c16-19.2 32-38.4 48-57.6 19.2-19.2 38.4-35.2 57.6-48l137.6 60.8c12.8-6.4 25.6-12.8 38.4-16l54.4-140.8c51.2-6.4 99.2-6.4 150.4 0l54.4 140.8c12.8 3.2 25.6 9.6 38.4 16l137.6-60.8c19.2 16 38.4 32 57.6 48 19.2 19.2 35.2 38.4 48 57.6l-60.8 137.6c6.4 12.8 12.8 25.6 16 38.4l137.6 54.4zM512 265.6c-99.2 0-182.4 83.2-182.4 182.4s83.2 182.4 182.4 182.4 182.4-83.2 182.4-182.4-83.2-182.4-182.4-182.4z" />
</font>
</defs>
</svg>
